<svg width="60" height="60" viewBox="0 0 60 60" fill="none" xmlns="http://www.w3.org/2000/svg">
<g clip-path="url(#clip0)">
<path d="M49.6175 35.3906H10.2654L0 60H60L49.6175 35.3906Z" fill="#339FAA"/>
<path d="M60 60H30V35.3906H49.6175L60 60Z" fill="#008795"/>
<path d="M47.2966 38.9062H12.5862L5.27344 56.4844H54.6094L47.2966 38.9062Z" fill="#C4E2F2"/>
<path d="M54.6094 56.4844H30V38.9062H47.2966L54.6094 56.4844Z" fill="#9ECBE2"/>
<path d="M30 0C21.2814 0 14.1797 7.21848 14.1797 15.9375C14.1797 18.9258 15.0233 21.9608 16.6054 24.4922L30 45.7265L43.3946 24.4922C44.9767 21.9608 45.8203 18.9258 45.8203 15.9375C45.8203 7.21848 38.7186 0 30 0V0ZM30 24.8438C25.1486 24.8438 21.2109 20.7889 21.2109 15.9375C21.2109 11.0861 25.1486 7.03125 30 7.03125C34.8514 7.03125 38.7891 11.0861 38.7891 15.9375C38.7891 20.7889 34.8514 24.8438 30 24.8438Z" fill="#D0DD28"/>
<path d="M20.7871 36.9302L24.2753 37.366L21.639 58.4602L18.1509 58.0244L20.7871 36.9302Z" fill="#339FAA"/>
<path d="M38.3515 58.4654L35.6475 37.3716L39.1361 36.9258L41.8396 58.0195L38.3515 58.4654Z" fill="#008795"/>
<path d="M7.91016 45.9375H51.9727V49.4531H7.91016V45.9375Z" fill="#339FAA"/>
<path d="M45.8203 15.9375C45.8203 18.9258 44.9767 21.9608 43.3946 24.4922L30 45.7265V24.8438C34.8514 24.8438 38.7891 20.7889 38.7891 15.9375C38.7891 11.0861 34.8514 7.03125 30 7.03125V0C38.7186 0 45.8203 7.21848 45.8203 15.9375Z" fill="#6B962A"/>
<path d="M30 45.9375H51.9727V49.4531H30V45.9375Z" fill="#008795"/>
</g>
<defs>
<clipPath id="clip0">
<rect width="60" height="60" fill="white"/>
</clipPath>
</defs>
</svg>
