<svg width="73" height="72" viewBox="0 0 73 72" fill="none" xmlns="http://www.w3.org/2000/svg">
<g clip-path="url(#clip0)">
<path d="M55.5252 20.645V42.0535C55.5252 49.0738 51.6234 55.1805 45.8693 58.3259C43.2321 59.7673 40.2075 60.5869 36.9918 60.5869C26.7564 60.5869 18.459 52.2895 18.459 42.0535V20.645H55.5252Z" fill="#6B962A"/>
<path d="M55.5253 20.645V42.0535C55.5253 49.0738 51.6235 55.1805 45.8694 58.3259C44.9696 58.4605 44.0479 58.5308 43.1091 58.5308H43.1074C32.8731 58.5308 24.5757 50.2334 24.5757 39.998V20.645H55.5253Z" fill="#D0DD28"/>
<path d="M61.6412 6.65283V20.2737C61.6412 21.1603 60.9232 21.8777 60.0366 21.8777H13.9468C13.0602 21.8777 12.3428 21.1603 12.3428 20.2737V6.65283H61.6412Z" fill="#7F8C8D"/>
<path d="M61.6415 6.65283V18.1275H22.2704C21.3849 18.1275 20.6675 17.4084 20.6675 16.5235V6.65283H61.6415Z" fill="#7F8C8D"/>
<path d="M63.9324 7.88489H10.0516C9.50342 7.88489 9.05957 7.44104 9.05957 6.89282V0.992065C9.05957 0.444397 9.50342 0 10.0516 0H63.9324C64.4801 0 64.924 0.444397 64.924 0.992065V6.89282C64.924 7.44104 64.4801 7.88489 63.9324 7.88489Z" fill="#95A5A5"/>
<path d="M36.9917 64.5352C36.3968 64.5352 35.915 65.0169 35.915 65.6118V70.9232C35.915 71.5181 36.3968 71.9998 36.9917 71.9998C37.5866 71.9998 38.0684 71.5181 38.0684 70.9232V65.6118C38.0684 65.0169 37.5866 64.5352 36.9917 64.5352Z" fill="#D0DD28"/>
<path d="M46.6369 63.6708C46.4336 63.1122 45.8162 62.8238 45.257 63.027C44.6983 63.2308 44.41 63.8488 44.6137 64.4075L46.4298 69.3986C46.5891 69.8358 47.0022 70.1072 47.4422 70.1072C47.5641 70.1072 47.6888 70.0863 47.8102 70.0424C48.3689 69.8386 48.6567 69.2211 48.4535 68.6619L46.6369 63.6708Z" fill="#6B962A"/>
<path d="M54.0241 58.9157C53.6424 58.4603 52.9629 58.401 52.5075 58.7833C52.0521 59.1656 51.9928 59.8446 52.3751 60.3L55.7891 64.3688C56.0022 64.6225 56.3071 64.7538 56.6142 64.7538C56.8586 64.7538 57.1042 64.6709 57.3058 64.5017C57.7611 64.1194 57.821 63.4404 57.4387 62.985L54.0241 58.9157Z" fill="#D0DD28"/>
<path d="M63.9395 54.5772L59.3395 51.9218C58.8242 51.6247 58.1662 51.8004 57.869 52.3157C57.5718 52.831 57.7481 53.489 58.2628 53.7868L62.8628 56.4422C63.0326 56.5399 63.2177 56.5866 63.4006 56.5866C63.7725 56.5866 64.1345 56.3938 64.3339 56.0483C64.6311 55.533 64.4547 54.875 63.9395 54.5772Z" fill="#6B962A"/>
<path d="M67.1738 44.4536L61.9432 43.5313C61.3571 43.4275 60.799 43.8192 60.6957 44.4047C60.5925 44.9903 60.9836 45.5484 61.5692 45.6517L66.8003 46.574C66.8635 46.5855 66.9261 46.5905 66.9887 46.5905C67.5012 46.5905 67.9555 46.223 68.0472 45.7011C68.1505 45.1156 67.7594 44.5569 67.1738 44.4536Z" fill="#D0DD28"/>
<path d="M61.7045 36.8932C61.7671 36.8932 61.8297 36.8877 61.8929 36.8767L67.124 35.9544C67.7096 35.8512 68.1007 35.2931 67.9974 34.7069C67.8936 34.1214 67.3344 33.7303 66.7499 33.8341L61.5188 34.7564C60.9332 34.8597 60.5427 35.4178 60.646 36.0033C60.7377 36.5257 61.192 36.8932 61.7045 36.8932Z" fill="#6B962A"/>
<path d="M28.7272 63.0268C28.168 62.8241 27.5506 63.112 27.3473 63.6706L25.5307 68.6617C25.3269 69.2209 25.6153 69.8383 26.174 70.0416C26.2954 70.0861 26.4201 70.107 26.542 70.107C26.982 70.107 27.3946 69.8356 27.5539 69.3983L29.3705 64.4067C29.5737 63.8486 29.2859 63.2306 28.7272 63.0268Z" fill="#6B962A"/>
<path d="M21.4772 58.7833C21.0213 58.4009 20.3423 58.4603 19.96 58.9162L16.546 62.985C16.1637 63.4404 16.223 64.1193 16.6784 64.5017C16.8805 64.6714 17.1261 64.7538 17.37 64.7538C17.6776 64.7538 17.9825 64.6231 18.1956 64.3693L21.6096 60.2999C21.9919 59.8445 21.9326 59.1656 21.4772 58.7833Z" fill="#D0DD28"/>
<path d="M14.6438 51.9218L10.0438 54.5772C9.52913 54.875 9.35226 55.533 9.64998 56.0483C9.84939 56.3938 10.2108 56.5866 10.5833 56.5866C10.7656 56.5866 10.9513 56.5399 11.1205 56.4422L15.7205 53.7868C16.2352 53.489 16.4121 52.831 16.1143 52.3157C15.8172 51.8004 15.1585 51.6247 14.6438 51.9218Z" fill="#6B962A"/>
<path d="M13.2884 44.4047C13.1852 43.8192 12.6265 43.4275 12.0409 43.5313L6.81036 44.4536C6.22479 44.5569 5.83368 45.115 5.93695 45.7011C6.02923 46.2235 6.48352 46.5905 6.99603 46.5905C7.0581 46.5905 7.12127 46.5855 7.18445 46.574L12.415 45.6517C13.0006 45.5484 13.3917 44.9903 13.2884 44.4047Z" fill="#D0DD28"/>
<path d="M6.86017 35.9544L12.0908 36.8767C12.1539 36.8877 12.2171 36.8932 12.2792 36.8932C12.7917 36.8932 13.246 36.5257 13.3383 36.0033C13.4415 35.4177 13.0504 34.8591 12.4648 34.7564L7.23425 33.8341C6.64813 33.7302 6.09002 34.1219 5.98675 34.7069C5.88348 35.2931 6.27459 35.8512 6.86017 35.9544Z" fill="#6B962A"/>
</g>
<defs>
<clipPath id="clip0">
<rect x="0.998535" width="72" height="72" fill="white"/>
</clipPath>
</defs>
</svg>
