<svg width="60" height="60" viewBox="0 0 60 60" fill="none" xmlns="http://www.w3.org/2000/svg">
<g clip-path="url(#clip0)">
<path d="M31.3449 3.98384e-06L3.10352 1.08408e-09V9.13138C3.10358 9.98484 3.26068 10.831 3.56696 11.6276C3.94442 12.6087 4.13799 13.6509 4.138 14.7021V52.9355C4.13784 53.4846 4.35592 54.0111 4.74421 54.3993L10.3449 60H38.2759C38.8473 60 39.3104 59.5369 39.3104 58.9655V19.6552L32.3183 0.676556C32.1681 0.269045 31.7792 -0.00119656 31.3449 3.98384e-06Z" fill="#2C3E50"/>
<path d="M39.3107 54.5691V58.9656C39.3107 59.5369 38.8476 60.0001 38.2762 60.0001H10.3452V19.6553H39.3107V54.5691Z" fill="#95A5A5"/>
<path d="M39.3104 19.6552H10.3449L3.10352 0H31.3449C31.7781 0.000101597 32.1654 0.270109 32.3152 0.676552L39.3104 19.6552Z" fill="#7F8C8D"/>
<path d="M32.6379 15.5175H13.5931C13.3753 15.5174 13.1809 15.3809 13.1068 15.1761L9.28961 4.83129C9.23231 4.6728 9.25581 4.49634 9.35259 4.35838C9.44937 4.22042 9.60729 4.13826 9.77581 4.13818H28.8206C29.0384 4.13828 29.2328 4.27476 29.3068 4.47956L30.2068 6.9106L33.1241 14.8244C33.1814 14.9829 33.1579 15.1593 33.0611 15.2973C32.9643 15.4353 32.8064 15.5174 32.6379 15.5175Z" fill="#C4E2F2"/>
<path opacity="0.4" d="M32.638 15.517H13.5931C13.3754 15.5169 13.181 15.3804 13.1069 15.1756C13.1069 15.1756 28.5824 4.13778 28.8207 4.1377C29.0591 4.13761 29.2329 4.27427 29.3069 4.47907L30.2069 6.91011L33.1242 14.8239C33.1815 14.9824 33.158 15.1588 33.0612 15.2968C32.9644 15.4348 32.8065 15.5169 32.638 15.517Z" fill="white"/>
<path d="M10.3449 19.6552V60L4.74421 54.3993C4.35617 54.0114 4.13812 53.4852 4.138 52.9366V14.7021C4.13808 13.7014 3.96303 12.7085 3.62076 11.7683C3.27825 10.8274 3.10319 9.83373 3.10352 8.83241L3.10352 0L10.3449 19.6552Z" fill="#3C3F4D"/>
<path d="M27.9313 25.8618H21.7244C21.1531 25.8618 20.6899 26.325 20.6899 26.8963V28.9653C20.6899 29.5366 21.1531 29.9998 21.7244 29.9998H27.9313C28.5026 29.9998 28.9658 29.5366 28.9658 28.9653V26.8963C28.9658 26.325 28.5026 25.8618 27.9313 25.8618Z" fill="#3C3F4D"/>
<path d="M53.7932 23.793H36.207C34.493 23.793 33.1035 25.1824 33.1035 26.8964V52.7585C33.1035 54.4725 34.493 55.8619 36.207 55.8619H53.7932C55.5072 55.8619 56.8966 54.4725 56.8966 52.7585V26.8964C56.8966 25.1824 55.5072 23.793 53.7932 23.793Z" fill="#008795"/>
<path d="M36 50.6875C36 51.723 36.8395 52.5625 37.875 52.5625C38.9105 52.5625 39.75 51.723 39.75 50.6875C39.75 49.652 38.9105 48.8125 37.875 48.8125C36.8395 48.8125 36 49.652 36 50.6875Z" fill="#FFDA44"/>
<path d="M36 47.875C36 48.9105 36.8395 49.75 37.875 49.75C38.9105 49.75 39.75 48.9105 39.75 47.875C39.75 46.8395 38.9105 46 37.875 46C36.8395 46 36 46.8395 36 47.875Z" fill="#FF5023"/>
<path d="M46.5518 23.793H51.7242V55.8619H46.5518V23.793Z" fill="#3C3F4D"/>
</g>
<defs>
<clipPath id="clip0">
<rect width="60" height="60" fill="white"/>
</clipPath>
</defs>
</svg>
