<svg width="73" height="72" viewBox="0 0 73 72" fill="none" xmlns="http://www.w3.org/2000/svg">
<g clip-path="url(#clip0)">
<path d="M26.6704 9.93115H8.44696C5.70458 9.93115 3.48145 12.1543 3.48145 14.8967V59.5863H70.5159V14.8967C70.5159 12.1543 68.2928 9.93115 65.5504 9.93115H26.6704Z" fill="#008795"/>
<path d="M49.4123 28.5518H60.5847C61.2703 28.5518 61.8261 29.1075 61.8261 29.7931V53.3793C61.8261 54.0649 61.2703 54.6207 60.5847 54.6207H13.4123C12.7267 54.6207 12.1709 54.0649 12.1709 53.3793V29.7931C12.1709 29.1075 12.7267 28.5518 13.4123 28.5518H49.4123Z" fill="#D0DD28"/>
<path opacity="0.6" d="M37.5198 28.8496C43.3791 28.8496 48.1708 34.5848 48.1708 41.5862C48.1708 48.7862 43.2053 54.6207 36.9984 54.6207C30.7915 54.6207 25.826 48.7862 25.826 41.5862C25.7768 37.9925 27.11 34.5172 29.5502 31.8786L37.5198 28.8496Z" fill="white"/>
<path d="M43.2053 45.9311C43.0619 43.7051 41.4791 41.8349 39.3074 41.3256C38.6563 41.1227 37.9634 41.483 37.7556 42.1325C37.7373 42.2435 37.7373 42.3567 37.7556 42.4677C37.3813 42.1795 36.8757 42.1288 36.4516 42.3369C36.0274 42.545 35.7582 42.9759 35.757 43.4484V48.2525C34.3294 47.9049 33.2743 47.0111 33.2743 45.9311C33.2743 45.2455 32.7185 44.6897 32.0329 44.6897C31.3473 44.6897 30.7915 45.2455 30.7915 45.9311C30.7915 48.4139 32.8894 50.3504 35.757 50.7973V50.8966C35.757 51.5822 36.3128 52.138 36.9984 52.138C37.684 52.138 38.2398 51.5822 38.2398 50.8966V50.7973C41.1074 50.3504 43.2053 48.4139 43.2053 45.9311ZM38.2398 48.2525V43.5104C38.336 43.5874 38.4453 43.6463 38.5625 43.6842C39.8784 44.1063 40.7225 44.9877 40.7225 45.9311C40.7225 46.8746 39.6674 47.9049 38.2398 48.2525Z" fill="#6B962A"/>
<path d="M19.6192 54.6206H13.4123C12.7267 54.6206 12.1709 54.0649 12.1709 53.3793V47.1724C16.2845 47.1724 19.6192 50.5071 19.6192 54.6206Z" fill="#6B962A"/>
<path d="M61.8262 47.1724V53.3793C61.8262 54.0649 61.2704 54.6206 60.5848 54.6206H54.3779C54.3779 50.5071 57.7126 47.1724 61.8262 47.1724Z" fill="#6B962A"/>
<path d="M70.5159 14.8967V19.8622H3.48145V14.8967C3.48145 12.1543 5.70458 9.93115 8.44696 9.93115H65.5504C68.2928 9.93115 70.5159 12.1543 70.5159 14.8967Z" fill="#95A5A5"/>
<path d="M65.5503 72.0002H8.44681C4.33324 72.0002 0.998535 68.6655 0.998535 64.5519V60.8278C0.998535 60.1422 1.55432 59.5864 2.23991 59.5864H71.7572C72.4427 59.5864 72.9985 60.1422 72.9985 60.8278V64.5519C72.9985 68.6655 69.6638 72.0002 65.5503 72.0002Z" fill="#95A5A5"/>
<path d="M24.585 59.5864H49.4125V62.0692C49.4125 64.126 47.7452 65.7933 45.6884 65.7933H28.3091C26.2523 65.7933 24.585 64.126 24.585 62.0692V59.5864Z" fill="#7F8C8D"/>
<path d="M49.4122 18.6207V32.2759C49.4122 33.6471 48.3006 34.7586 46.9295 34.7586C45.5583 34.7586 44.4467 33.6471 44.4467 32.2759V37.2414C44.4467 38.6126 43.3351 39.7241 41.9639 39.7241C40.5927 39.7241 39.4812 38.6126 39.4812 37.2414V40.9655C39.4812 42.3367 38.3696 43.4483 36.9984 43.4483C35.6272 43.4483 34.5157 42.3367 34.5157 40.9655V34.7586C34.5157 36.1298 33.4041 37.2414 32.0329 37.2414C30.6617 37.2414 29.5501 36.1298 29.5501 34.7586V28.5517H28.3088C27.8847 28.5544 27.4639 28.4787 27.0674 28.3283C25.583 27.8035 24.589 26.402 24.5846 24.8276V16.1379C24.5394 13.1507 25.8549 10.305 28.1598 8.40414C29.0396 7.69666 29.5509 6.62827 29.5501 5.49931V1.24138C29.5501 0.555784 30.1059 0 30.7915 0H44.4467C45.1323 0 45.6881 0.555784 45.6881 1.24138V4.96552C45.6677 7.01495 46.204 9.03148 47.2398 10.8C48.658 13.1624 49.4088 15.8653 49.4122 18.6207Z" fill="#FDD7AD"/>
<path d="M19.6192 28.5518C19.6192 32.6653 16.2845 36 12.1709 36V29.7931C12.1709 29.1075 12.7267 28.5518 13.4123 28.5518H19.6192Z" fill="#6B962A"/>
<path d="M61.8262 29.7931V36C57.7126 36 54.3779 32.6653 54.3779 28.5518H60.5848C60.9141 28.5518 61.2298 28.6825 61.4626 28.9153C61.6954 29.1482 61.8262 29.4639 61.8262 29.7931Z" fill="#6B962A"/>
<path d="M29.5501 23.5861V28.5516H28.3088C27.8847 28.5543 27.4639 28.4786 27.0674 28.3282V23.5861C27.0674 22.9005 27.6232 22.3447 28.3088 22.3447C28.9944 22.3447 29.5501 22.9005 29.5501 23.5861Z" fill="#F9C795"/>
<path d="M34.5155 23.5861V34.7585C34.5155 36.1297 33.4039 37.2413 32.0327 37.2413V23.5861C32.0327 22.9005 32.5885 22.3447 33.2741 22.3447C33.9597 22.3447 34.5155 22.9005 34.5155 23.5861Z" fill="#F9C795"/>
<path d="M39.4813 23.5861V40.9654C39.4813 42.3366 38.3697 43.4482 36.9985 43.4482V23.5861C36.9985 22.9005 37.5543 22.3447 38.2399 22.3447C38.9255 22.3447 39.4813 22.9005 39.4813 23.5861Z" fill="#F9C795"/>
<path d="M44.4466 23.5861V37.2413C44.4466 38.6125 43.3351 39.724 41.9639 39.724V23.5861C41.9639 22.9005 42.5197 22.3447 43.2052 22.3447C43.8908 22.3447 44.4466 22.9005 44.4466 23.5861Z" fill="#F9C795"/>
</g>
<defs>
<clipPath id="clip0">
<rect x="0.998535" width="72" height="72" fill="white"/>
</clipPath>
</defs>
</svg>
