<svg width="60" height="60" viewBox="0 0 60 60" fill="none" xmlns="http://www.w3.org/2000/svg">
<g clip-path="url(#clip0)">
<path d="M47.5786 45.938C44.9025 45.938 42.4443 46.8146 40.4251 48.2653L37.8438 54.0963L42.3051 60.0005H60.0004V58.2427C60.0004 51.4472 54.3741 45.938 47.5786 45.938Z" fill="#C4E2F2"/>
<path d="M8.90625 14.8499L3.46115 17.6958L4.49478 11.4533L0 7.18417L6.23199 6.30527L8.90625 0.000488281L11.646 6.30527L17.6953 7.18417L13.3177 11.4533L14.3513 17.6958L8.90625 14.8499Z" fill="#D0DD28"/>
<path d="M34.3945 11.4377L35.4492 17.6958L30 14.8481L24.5508 17.6958L25.6055 11.4377L21.2109 7.18417L27.328 6.30527L30 0.000488281L32.7425 6.30527L38.7891 7.18417L34.3945 11.4377Z" fill="#D0DD28"/>
<path d="M51.0938 14.8499L45.6487 17.6958L46.6823 11.4533L42.3047 7.18417L48.4195 6.30527L51.0938 0.000488281L53.8335 6.30527L60 7.18417L55.5052 11.4533L56.5388 17.6958L51.0938 14.8499Z" fill="#008795"/>
<path d="M12.4219 45.938C5.62637 45.938 0 51.4472 0 58.2427V60.0005H17.6953L22.056 54.7271L19.5753 48.2657C17.5562 46.8146 15.098 45.938 12.4219 45.938Z" fill="#9ECBE2"/>
<path d="M35.4492 17.6958L30 14.8481V0.000488281L32.7425 6.30527L38.7891 7.18417L34.3945 11.4377L35.4492 17.6958Z" fill="#008795"/>
<path d="M42.6094 54.7271V60.0005H18V54.7271C18 52.3366 18.7031 50.1567 19.8636 48.2584C22.043 44.7776 25.9102 42.4224 30.3047 42.4224C34.6992 42.4224 38.5664 44.7776 40.7458 48.2584C41.9062 50.1567 42.6094 52.3366 42.6094 54.7271Z" fill="#C4E2F2"/>
<path d="M53.1434 36.3692C53.1434 36.3692 53.7533 35.252 54.9726 35.252C56.1919 35.252 57.0561 40.6136 53.1434 39.7199V36.3692Z" fill="#FDD7AD"/>
<path d="M41.8555 36.3692C41.8555 36.3692 41.246 35.252 40.0263 35.252C38.8069 35.252 37.9432 40.6136 41.8555 39.7199V36.3692Z" fill="#FDD7AD"/>
<path d="M47.6452 29.1836C56.9879 29.1836 55.2017 44.5064 47.6452 44.5064C40.0886 44.5064 38.3024 29.1836 47.6452 29.1836Z" fill="#FDD7AD"/>
<path d="M43.7527 41.8735H51V46.7853L47.3763 49.8519L43.7495 46.7831L43.7527 41.8735Z" fill="#FDD7AD"/>
<path d="M47.7524 26.0005H47.2477C43.8026 26.0005 41 28.7487 41 32.1265V32.9435V33.7085V36.0005C41 36.0005 42.4224 34.8621 42.5972 34.1858L42.5963 34.1851C42.6565 34.1212 42.7067 34.048 42.7423 33.9667C43.5489 33.9426 47.318 33.914 49.4706 31.3651C49.7273 32.1017 50.5963 33.497 52.2684 33.9362C52.3025 34.025 52.3541 34.1052 52.4162 34.1746L52.4025 34.1855C52.5774 34.8618 54 36.0002 54 36.0002V33.703V32.9432V32.1262C54.0004 28.7488 51.1972 26.0005 47.7524 26.0005ZM52.4628 33.7458L52.5231 33.703H52.5315L52.4335 33.7742L52.4628 33.7458ZM52.4321 33.7639L52.439 33.7435L52.4603 33.703H52.4685L52.4434 33.7536L52.4321 33.7639ZM52.2668 33.8897L52.2645 33.8865L52.4185 33.7771L52.3822 33.8116L52.2696 33.8932L52.2668 33.8897ZM52.3937 33.8543L52.3454 33.9522L52.338 33.9491L52.3347 33.9471L52.4136 33.7939L52.4155 33.7919L52.3937 33.8543Z" fill="#3C3F4D"/>
<path d="M42.3047 54.7271V60.0005H30V42.4224C34.3945 42.4224 38.2617 44.7776 40.4411 48.2584C41.6016 50.1567 42.3047 52.3366 42.3047 54.7271Z" fill="#9ECBE2"/>
<path d="M17.236 28.0503C17.0347 27.272 16.1758 26.1693 12.9224 26.1693C7.8952 26.1693 7.17964 26.9136 5.84166 25.6279C4.71264 24.5434 4.05013 29.7637 5.55495 31.4216C4.91957 33.77 5.42779 36.1216 5.42779 36.1216H19.5714C19.5714 36.1216 20.7583 30.6279 17.236 28.0503Z" fill="#3C3F4D"/>
<path d="M5.84179 26.9181C7.17937 28.2038 7.89533 27.4591 12.9225 27.4591C16.1759 27.4591 17.0348 28.5618 17.2361 29.3402C19.105 30.7077 19.648 32.8965 19.746 34.65C19.844 32.837 19.6051 29.7836 17.2361 28.05C17.0348 27.272 16.1759 26.1689 12.9225 26.1689C7.89533 26.1689 7.17977 26.9132 5.84179 25.6279C5.09829 24.9136 4.55686 26.9343 4.70386 28.8708C4.81158 27.4522 5.26594 26.3645 5.84179 26.9181Z" fill="#3C3F4D"/>
<path d="M6.85661 36.3692C6.85661 36.3692 6.24675 35.252 5.02742 35.252C3.80809 35.252 2.94391 40.6136 6.85661 39.7199V36.3692Z" fill="#FDD7AD"/>
<path d="M18.1445 36.3692C18.1445 36.3692 18.754 35.252 19.9737 35.252C21.1931 35.252 22.0568 40.6136 18.1445 39.7199V36.3692Z" fill="#FDD7AD"/>
<path d="M12.3548 29.1836C3.01205 29.1836 4.79832 44.5064 12.3548 44.5064C19.9114 44.5064 21.6976 29.1836 12.3548 29.1836Z" fill="#FDD7AD"/>
<path d="M16.2473 41.8735H9V46.7853L12.6237 49.8519L16.2505 46.7831L16.2473 41.8735Z" fill="#FDD7AD"/>
<path d="M12.4998 28.0285C12.4998 28.0285 6 27.1671 6 35.0005C6 35.0005 6.81848 31.7625 8.6961 30.8798C9.5705 30.4685 9.89068 31.5104 12.5002 31.5104C15.1093 31.5104 15.4295 30.4685 16.3039 30.8798C18.1819 31.7625 19 35.0005 19 35.0005C18.9996 27.1671 12.4998 28.0285 12.4998 28.0285Z" fill="#3C3F4D"/>
<path d="M35.2359 24.0505C35.0346 23.2721 34.1757 22.1694 30.9223 22.1694C28.2462 22.1694 24.4995 22.5005 23.5549 27.4217C23.2087 29.2249 23.4277 32.1217 23.4277 32.1217H37.5713C37.5713 32.1217 38.7582 26.628 35.2359 24.0505Z" fill="#3C3F4D"/>
<path d="M24.8566 32.3692C24.8566 32.3692 24.2467 31.252 23.0274 31.252C21.8081 31.252 20.9439 36.6136 24.8566 35.7199V32.3692Z" fill="#FDD7AD"/>
<path d="M36.1445 32.3692C36.1445 32.3692 36.754 31.252 37.9737 31.252C39.1931 31.252 40.0568 36.6136 36.1445 35.7199V32.3692Z" fill="#FDD7AD"/>
<path d="M30.3548 25.1836C21.0121 25.1836 22.7983 40.5064 30.3548 40.5064C37.9114 40.5064 39.6976 25.1836 30.3548 25.1836Z" fill="#FDD7AD"/>
<path d="M34.2473 37.8735H27V42.7853L30.6237 45.8519L34.2505 42.7831L34.2473 37.8735Z" fill="#FDD7AD"/>
<path d="M30.4998 24.0285C30.4998 24.0285 24 23.1671 24 31.0005C24 31.0005 24.8185 27.7625 26.6961 26.8798C27.5705 26.4685 27.8907 27.5104 30.5002 27.5104C33.1093 27.5104 33.4295 26.4685 34.3039 26.8798C36.1819 27.7625 37 31.0005 37 31.0005C36.9996 23.1671 30.4998 24.0285 30.4998 24.0285Z" fill="#3C3F4D"/>
</g>
<defs>
<clipPath id="clip0">
<rect y="0.000488281" width="60" height="60" fill="white"/>
</clipPath>
</defs>
</svg>
