<svg width="60" height="60" viewBox="0 0 60 60" fill="none" xmlns="http://www.w3.org/2000/svg">
<g clip-path="url(#clip0)">
<path d="M56.3767 17.1214L45.5479 6.27197V49.7491H60.0401V25.9307C60.0401 22.6234 58.7212 19.4529 56.3767 17.1214Z" fill="#FDD7AD"/>
<path d="M8.46418 41.8278L0.277752 20.5758C-0.543901 18.4424 0.519019 16.046 2.65358 15.2239L41.2935 0.340253C43.4269 -0.481402 45.8233 0.581519 46.6449 2.71608L54.8314 23.9682C55.653 26.1015 54.5901 28.4979 52.4555 29.32L13.8168 44.2037C11.6823 45.0253 9.28702 43.9612 8.46418 41.8278Z" fill="#D0DD28"/>
<path d="M49.5951 10.3711L3.26514 28.3294L6.3501 36.3376L52.682 18.3876L49.5951 10.3711Z" fill="#6B962A"/>
<path d="M0.000976562 26.9755V4.20179C0.000976562 1.9151 1.85505 0.0610352 4.14173 0.0610352H45.5485C47.8352 0.0610352 49.6893 1.9151 49.6893 4.20179V26.9755C49.6893 29.2622 47.8352 31.1163 45.5485 31.1163H4.14173C1.85505 31.1163 0.000976562 29.2622 0.000976562 26.9755Z" fill="#008795"/>
<path d="M4.14111 16.6235H8.28187V18.6939H4.14111V16.6235Z" fill="white"/>
<path d="M4.14111 22.835H8.28187V24.9053H4.14111V22.835Z" fill="white"/>
<path d="M22.7744 22.835H26.9152V24.9053H22.7744V22.835Z" fill="white"/>
<path d="M10.3521 16.6235H14.4924V18.6939H10.3521V16.6235Z" fill="white"/>
<path d="M16.563 16.6235H20.7037V18.6939H16.563V16.6235Z" fill="white"/>
<path d="M22.7744 16.6235H26.9152V18.6939H22.7744V16.6235Z" fill="white"/>
<path d="M42.4424 4.20166H44.5128V7.30723H42.4424V4.20166Z" fill="white"/>
<path d="M38.3018 4.20166H40.3721V7.30723H38.3018V4.20166Z" fill="white"/>
<path d="M34.1606 4.20166H36.231V7.30723H34.1606V4.20166Z" fill="white"/>
<path d="M30.0205 4.20166H32.0905V7.30723H30.0205V4.20166Z" fill="white"/>
<path d="M41.4072 49.7495H60.0402V60.101H41.4072V49.7495Z" fill="#D0DD28"/>
<path d="M38.3689 18.7614C36.6131 17.0119 33.7718 17.0171 32.0223 18.7729C30.3307 20.4705 30.272 23.1981 31.8888 24.9674L40.372 34.2219C37.8222 38.6843 37.9312 44.1871 40.6544 48.5454L41.4072 49.7493H54.8642V35.2571L38.3689 18.7614Z" fill="#FDD7AD"/>
<path d="M44.5127 52.855H46.5831V54.9254H44.5127V52.855Z" fill="#6B962A"/>
<path d="M4.14111 10.8268V5.85804C4.14111 4.94289 4.88234 4.20166 5.79749 4.20166H10.7662C11.6814 4.20166 12.4222 4.94289 12.4222 5.85804V10.8268C12.4222 11.7419 11.6814 12.4832 10.7662 12.4832H5.79749C4.88234 12.4832 4.14111 11.7419 4.14111 10.8268Z" fill="#D0DD28"/>
<path d="M4.14111 7.30762H7.24668V9.37799H4.14111V7.30762Z" fill="#6B962A"/>
<path d="M9.31738 7.30762H12.4226V9.37799H9.31738V7.30762Z" fill="#6B962A"/>
</g>
<defs>
<clipPath id="clip0">
<rect width="60" height="60" fill="white"/>
</clipPath>
</defs>
</svg>
