<svg width="38" height="38" viewBox="0 0 38 38" fill="none" xmlns="http://www.w3.org/2000/svg">
<path fill-rule="evenodd" clip-rule="evenodd" d="M19 38C29.4934 38 38 29.4934 38 19C38 8.50659 29.4934 0 19 0C8.50659 0 0 8.50659 0 19C0 29.4934 8.50659 38 19 38Z" fill="#3B5998"/>
<path fill-rule="evenodd" clip-rule="evenodd" d="M17.4961 25.75V19.4883H15.3906V17H17.4961V15.0312C17.4961 13.9922 17.7878 13.1855 18.3711 12.6113C18.9544 12.0371 19.7292 11.75 20.6953 11.75C21.4792 11.75 22.1172 11.7865 22.6094 11.8594V14.0742H21.2969C20.8047 14.0742 20.4674 14.1836 20.2851 14.4023C20.1393 14.5846 20.0664 14.8763 20.0664 15.2773V17H22.3906L22.0625 19.4883H20.0664V25.75H17.4961Z" fill="white"/>
</svg>
