<svg width="60" height="60" viewBox="0 0 60 60" fill="none" xmlns="http://www.w3.org/2000/svg">
<path d="M59.8907 23.0306V55.1856C59.8907 57.8452 57.7357 60.0001 55.0775 60.0001H15.5282C13.2562 60.0001 11.3523 58.4258 10.8464 56.3084L10.8271 53.5559L10.7148 37.1639V4.81453C10.7148 2.15496 12.8698 0 15.5282 0H36.8602C38.7773 0 44.9861 5.29371 50.4742 10.8688C55.4819 15.9573 59.8907 21.2801 59.8907 23.0306Z" fill="#C4E2F2"/>
<path d="M59.8918 23.0312V25.0676C59.8918 20.7802 56.4152 17.3036 52.1278 17.3036H47.4023C44.744 17.3036 42.5881 15.1477 42.5881 12.4894V7.76402C42.5882 3.4766 39.1115 0 34.8242 0H36.8606C40.5274 0 44.0451 1.45699 46.6379 4.04965L55.8422 13.2539C58.4349 15.8467 59.8918 19.3644 59.8918 23.0312Z" fill="#9ECBE2"/>
<path d="M51.763 28.1286H18.8429C18.3427 28.1286 17.9375 27.7233 17.9375 27.2233C17.9375 26.7232 18.3429 26.3179 18.8429 26.3179H51.7631C52.2632 26.3179 52.6685 26.7232 52.6685 27.2233C52.6685 27.7233 52.2631 28.1286 51.763 28.1286Z" fill="#008795"/>
<path d="M51.763 32.9451H18.8429C18.3427 32.9451 17.9375 32.5397 17.9375 32.0397C17.9375 31.5396 18.3429 31.1343 18.8429 31.1343H51.7631C52.2632 31.1343 52.6685 31.5396 52.6685 32.0397C52.6685 32.5397 52.2631 32.9451 51.763 32.9451Z" fill="#008795"/>
<path d="M51.763 37.761H18.8429C18.3427 37.761 17.9375 37.3556 17.9375 36.8556C17.9375 36.3555 18.3429 35.9502 18.8429 35.9502H51.7631C52.2632 35.9502 52.6685 36.3555 52.6685 36.8556C52.6685 37.3556 52.2631 37.761 51.763 37.761Z" fill="#008795"/>
<path d="M44.6687 42.5779H18.8429C18.3427 42.5779 17.9375 42.1725 17.9375 41.6725C17.9375 41.1724 18.3429 40.7671 18.8429 40.7671H44.6687C45.1688 40.7671 45.5741 41.1724 45.5741 41.6725C45.5741 42.1725 45.1688 42.5779 44.6687 42.5779Z" fill="#008795"/>
<path d="M30.9361 14.7703H18.8429C18.3427 14.7703 17.9375 14.3649 17.9375 13.8649C17.9375 13.3648 18.3429 12.9595 18.8429 12.9595H30.9361C31.4362 12.9595 31.8414 13.3648 31.8414 13.8649C31.8414 14.3648 31.4362 14.7703 30.9361 14.7703Z" fill="#008795"/>
<path d="M18.0789 59.9986C28.0032 59.9986 36.0484 51.9534 36.0484 42.0291C36.0484 32.1048 28.0032 24.0596 18.0789 24.0596C8.15461 24.0596 0.109375 32.1048 0.109375 42.0291C0.109375 51.9534 8.15461 59.9986 18.0789 59.9986Z" fill="#6B962A"/>
<path d="M18.8182 59.9846C18.5726 59.995 18.327 59.9998 18.0795 59.9998C8.15477 59.9998 0.109375 51.9545 0.109375 42.0297C0.109375 32.1059 8.15477 24.0605 18.0795 24.0605C18.327 24.0605 18.5726 24.0654 18.8182 24.0758C9.23629 24.4632 1.58687 32.3536 1.58687 42.0297C1.58687 51.707 9.23629 59.5972 18.8182 59.9846Z" fill="#008795"/>
<path d="M18.079 55.8621C25.7187 55.8621 31.912 49.6689 31.912 42.0292C31.912 34.3895 25.7187 28.1963 18.079 28.1963C10.4393 28.1963 4.24609 34.3895 4.24609 42.0292C4.24609 49.6689 10.4393 55.8621 18.079 55.8621Z" fill="white"/>
<path d="M31.9137 42.0293C31.9137 49.669 25.7203 55.8624 18.0806 55.8624C17.6822 55.8624 17.2881 55.8457 16.8984 55.8123C23.9852 55.2129 29.5493 49.2706 29.5493 42.0293C29.5493 34.7881 23.9852 28.8457 16.8984 28.2463C17.2881 28.213 17.6822 28.1963 18.0806 28.1963C25.7203 28.1964 31.9137 34.3897 31.9137 42.0293Z" fill="white"/>
<path d="M16.9939 41.9911C16.7832 41.9911 16.5717 41.9181 16.4002 41.769L10.7254 36.8359C10.3481 36.5079 10.3081 35.9359 10.6361 35.5585C10.9641 35.1811 11.536 35.1411 11.9135 35.4692L17.5883 40.4024C17.9656 40.7304 18.0056 41.3024 17.6776 41.6797C17.4986 41.8857 17.2469 41.9911 16.9939 41.9911Z" fill="#D0DD28"/>
<path d="M19.3361 42.2321C19.0191 42.2321 18.7113 42.0652 18.5454 41.7689C18.3009 41.3327 18.4565 40.7808 18.8929 40.5365L22.0856 38.7479C22.5216 38.5038 23.0736 38.659 23.318 39.0953C23.5624 39.5316 23.4069 40.0834 22.9705 40.3278L19.7777 42.1164C19.6377 42.1948 19.4859 42.2321 19.3361 42.2321Z" fill="#D0DD28"/>
<path d="M18.078 44.3728C16.7858 44.3728 15.7344 43.3215 15.7344 42.0292C15.7344 40.7368 16.7858 39.6855 18.078 39.6855C19.3702 39.6855 20.4216 40.737 20.4216 42.0292C20.4216 43.3215 19.3702 44.3728 18.078 44.3728ZM18.078 41.4964C17.7842 41.4964 17.5453 41.7355 17.5453 42.0293C17.5453 42.3231 17.7842 42.562 18.078 42.562C18.3718 42.562 18.6107 42.3231 18.6107 42.0293C18.6107 41.7354 18.3718 41.4964 18.078 41.4964Z" fill="#D0DD28"/>
<path d="M18.079 31.4536C17.7076 31.4536 17.3699 31.2193 17.2355 30.8741C17.0882 30.496 17.2208 30.0484 17.5521 29.813C18.2063 29.3481 19.1356 29.9391 18.9658 30.7346C18.8773 31.1491 18.5033 31.4536 18.079 31.4536Z" fill="#008795"/>
<path d="M18.0792 54.4143C17.7008 54.4143 17.3558 54.1689 17.2277 53.8134C17.0926 53.4387 17.2284 53.0044 17.5524 52.7732C18.2064 52.3063 19.1358 52.9003 18.966 53.6947C18.8776 54.1082 18.5033 54.4143 18.0792 54.4143Z" fill="#008795"/>
<path d="M12.3416 32.9914C11.9539 32.9914 11.6043 32.7371 11.4824 32.3703C11.3604 32.0035 11.493 31.5793 11.8095 31.354C12.4783 30.8781 13.4256 31.4965 13.219 32.3066C13.1174 32.7045 12.7533 32.9914 12.3416 32.9914Z" fill="#008795"/>
<path d="M23.8216 52.8761C23.453 52.8761 23.1126 52.6425 22.9786 52.2995C22.8353 51.9327 22.9527 51.5037 23.2614 51.2597C23.9101 50.747 24.879 51.3488 24.7074 52.1563C24.6196 52.5696 24.2449 52.8761 23.8216 52.8761Z" fill="#008795"/>
<path d="M8.13797 37.1943C7.31543 37.1943 6.92602 36.1355 7.55004 35.6005C7.8477 35.3454 8.29067 35.3147 8.62161 35.5238C8.93461 35.7215 9.09856 36.1027 9.02649 36.4663C8.94364 36.8843 8.56336 37.1943 8.13797 37.1943Z" fill="#008795"/>
<path d="M28.022 48.6742C27.6036 48.6742 27.23 48.3765 27.1385 47.9678C27.0621 47.6266 27.1948 47.2577 27.4752 47.0474C28.1434 46.5462 29.1059 47.1787 28.8994 47.9894C28.7981 48.387 28.4332 48.6742 28.022 48.6742Z" fill="#008795"/>
<path d="M6.59968 42.9342C5.75909 42.9342 5.37589 41.8306 6.04315 41.3143C6.67901 40.8222 7.62823 41.3783 7.49253 42.1777C7.41952 42.6074 7.03702 42.9342 6.59968 42.9342Z" fill="#008795"/>
<path d="M29.5605 42.9342C29.189 42.9342 28.8495 42.6985 28.7158 42.3534C28.5737 41.9864 28.6925 41.5567 29.003 41.3147C29.657 40.8049 30.6297 41.415 30.4428 42.2266C30.3492 42.6337 29.9812 42.9342 29.5605 42.9342Z" fill="#008795"/>
<path d="M12.3413 52.876C11.9549 52.876 11.6025 52.62 11.4821 52.254C11.3605 51.8848 11.4934 51.4663 11.8092 51.238C12.4765 50.7557 13.4235 51.3846 13.2187 52.1902C13.1174 52.5878 12.7528 52.876 12.3413 52.876Z" fill="#008795"/>
<path d="M23.8221 32.9919C23.4189 32.9919 23.0582 32.7161 22.9502 32.3285C22.8444 31.9484 23.0053 31.5328 23.3384 31.3227C24.006 30.9015 24.8782 31.515 24.7047 32.2856C24.6127 32.6939 24.2411 32.9919 23.8221 32.9919Z" fill="#008795"/>
<path d="M8.13775 48.6737C7.759 48.6737 7.41389 48.429 7.28627 48.0736C7.15701 47.7136 7.27478 47.2934 7.5776 47.0576C8.23642 46.5447 9.21037 47.1551 9.01935 47.9728C8.92466 48.3777 8.5547 48.6737 8.13775 48.6737Z" fill="#008795"/>
<path d="M28.0218 37.1939C27.6275 37.1939 27.2698 36.928 27.1552 36.5512C27.0408 36.1751 27.1912 35.7535 27.5184 35.5352C28.1905 35.0866 29.0986 35.7209 28.8992 36.5082C28.7985 36.9056 28.4328 37.1939 28.0218 37.1939Z" fill="#008795"/>
<path d="M18.0783 56.7673C9.95156 56.7673 3.33984 50.1557 3.33984 42.029C3.33984 33.9021 9.95156 27.2905 18.0783 27.2905C26.205 27.2905 32.8167 33.9021 32.8167 42.029C32.8166 50.1556 26.205 56.7673 18.0783 56.7673ZM18.0783 29.1014C10.95 29.1014 5.15074 34.9007 5.15074 42.029C5.15074 49.1571 10.95 54.9564 18.0783 54.9564C25.2066 54.9564 31.0058 49.1571 31.0058 42.0289C31.0058 34.9006 25.2066 29.1014 18.0783 29.1014Z" fill="#D0DD28"/>
</svg>
