<svg width="72" height="72" viewBox="0 0 72 72" fill="none" xmlns="http://www.w3.org/2000/svg">
<g clip-path="url(#clip0)">
<path d="M36.0287 0C22.1343 0 10.8711 11.1703 10.8711 24.95C10.8711 35.1063 16.991 43.8448 25.7729 47.7378C26.8326 48.2069 27.5242 49.2468 27.5242 50.4058V56.094H44.5327V50.4058C44.5327 49.2468 45.2248 48.2075 46.2839 47.7378C55.0658 43.8448 61.1863 35.1063 61.1863 24.95C61.1863 11.1703 49.9225 0 36.0287 0Z" fill="#D0DD28"/>
<path d="M30.1191 47.7378C21.3372 43.8448 15.2173 35.1063 15.2173 24.95C15.2173 11.8965 25.3253 1.18652 38.2018 0.0933837C37.4855 0.032959 36.7609 0 36.0287 0C22.1343 0 10.8711 11.1703 10.8711 24.95C10.8711 35.1068 16.991 43.8448 25.773 47.7378C26.8326 48.2075 27.5242 49.2468 27.5242 50.4058V56.094H31.8704V50.4058C31.8704 49.2468 31.1788 48.2069 30.1191 47.7378Z" fill="#6B962A"/>
<path d="M38.4924 45.824C38.254 45.824 38.0145 45.746 37.814 45.5856C37.3454 45.2109 37.2696 44.527 37.6443 44.0585L42.9589 37.4156V28.047C42.9589 27.4471 43.445 26.9604 44.0454 26.9604C44.6453 26.9604 45.132 27.4466 45.132 28.047V37.7968C45.132 38.0435 45.0479 38.283 44.8936 38.4752L39.3416 45.4158C39.1269 45.6844 38.811 45.824 38.4924 45.824Z" fill="#6B962A"/>
<path d="M33.562 45.824C33.2429 45.824 32.9276 45.6844 32.7128 45.4158L27.1603 38.4752C27.0059 38.283 26.9219 38.0435 26.9219 37.7968V28.047C26.9219 27.4471 27.4086 26.9604 28.009 26.9604C28.6088 26.9604 29.0955 27.4466 29.0955 28.047V37.4156L34.4096 44.0585C34.7848 44.527 34.7084 45.2109 34.2399 45.5856C34.0394 45.746 33.7999 45.824 33.562 45.824Z" fill="#6B962A"/>
<path d="M45.711 30.1981H26.3405C25.7406 30.1981 25.2539 29.7114 25.2539 29.1115C25.2539 28.5111 25.7401 28.0244 26.3405 28.0244H45.711C46.3114 28.0244 46.7981 28.5111 46.7981 29.1115C46.7981 29.7114 46.3114 30.1981 45.711 30.1981Z" fill="#6B962A"/>
<path d="M69.9817 26.0364H65.2389C64.639 26.0364 64.1523 25.5497 64.1523 24.9499C64.1523 24.3495 64.6385 23.8628 65.2389 23.8628H69.9817C70.5821 23.8628 71.0682 24.3495 71.0682 24.9499C71.0682 25.5497 70.5821 26.0364 69.9817 26.0364Z" fill="#D0DD28"/>
<path d="M64.0172 15.9501C63.614 15.9501 63.2262 15.7244 63.0389 15.3371C62.7769 14.7971 63.0026 14.1473 63.5426 13.8853L67.8102 11.816C68.3497 11.5545 69.0001 11.7797 69.2621 12.3197C69.5236 12.8597 69.2984 13.5101 68.7584 13.7716L64.4907 15.8408C64.338 15.915 64.176 15.9501 64.0172 15.9501Z" fill="#D0DD28"/>
<path d="M68.2832 38.1918C68.1245 38.1918 67.963 38.1567 67.8102 38.0825L63.5426 36.0132C63.0026 35.7518 62.7769 35.1014 63.0389 34.5614C63.3004 34.0214 63.9507 33.7962 64.4907 34.0577L68.7584 36.127C69.2984 36.389 69.5236 37.0388 69.2621 37.5788C69.0742 37.9661 68.6864 38.1918 68.2832 38.1918Z" fill="#D0DD28"/>
<path d="M6.81372 26.0364H2.07092C1.47107 26.0364 0.984375 25.5497 0.984375 24.9499C0.984375 24.3495 1.47107 23.8628 2.07092 23.8628H6.81372C7.41357 23.8628 7.90027 24.3495 7.90027 24.9499C7.90027 25.5497 7.41357 26.0364 6.81372 26.0364Z" fill="#D0DD28"/>
<path d="M8.03711 15.9501C7.87836 15.9501 7.71686 15.915 7.56415 15.8408L3.29651 13.7716C2.75653 13.5101 2.53076 12.8597 2.79279 12.3197C3.05426 11.7797 3.70465 11.5545 4.24463 11.816L8.51227 13.8853C9.05225 14.1473 9.27746 14.7971 9.01599 15.3371C8.82812 15.7244 8.44031 15.9501 8.03711 15.9501Z" fill="#D0DD28"/>
<path d="M3.77112 38.1918C3.36792 38.1918 2.9801 37.9661 2.79279 37.5788C2.53076 37.0388 2.75653 36.389 3.29651 36.127L7.56415 34.0577C8.10413 33.7962 8.75397 34.0214 9.01599 34.5614C9.27746 35.1014 9.05225 35.7518 8.51227 36.0132L4.24463 38.0825C4.09192 38.1567 3.92987 38.1918 3.77112 38.1918Z" fill="#D0DD28"/>
<path d="M37.1298 44.23H34.9254C33.886 44.23 33.0352 45.0803 33.0352 46.1202V56.0941H39.02V46.1202C39.02 45.0803 38.1696 44.23 37.1298 44.23Z" fill="#6B962A"/>
<path d="M38.1086 44.5074C37.8225 44.3327 37.4879 44.23 37.1298 44.23H34.9254C33.886 44.23 33.0352 45.0803 33.0352 46.1202V56.0941H37.1973V46.1202C37.1973 45.4385 37.5637 44.8403 38.1086 44.5074Z" fill="#6B962A"/>
<path d="M44.7944 55.9487H27.2607C26.2214 55.9487 25.3711 56.7991 25.3711 57.8389V59.4534C25.3711 60.4927 26.2214 61.343 27.2607 61.343H44.7944C45.8337 61.343 46.684 60.4927 46.684 59.4534V57.8389C46.684 56.7991 45.8337 55.9487 44.7944 55.9487Z" fill="#7F8C8D"/>
<path d="M44.7944 57.7216H27.2607C26.59 57.7216 25.9995 57.3661 25.6639 56.835C25.4799 57.1266 25.3711 57.4705 25.3711 57.8391V59.4536C25.3711 60.4929 26.2214 61.3432 27.2607 61.3432H44.7944C45.8337 61.3432 46.684 60.4929 46.684 59.4536V57.8391C46.684 57.4705 46.5758 57.1266 46.3912 56.835C46.0562 57.3661 45.4651 57.7216 44.7944 57.7216Z" fill="#95A5A5"/>
<path d="M29.3086 66.3032V68.4725C29.3086 70.4127 30.8961 72.0002 32.8363 72.0002H39.2199C41.1601 72.0002 42.7476 70.4127 42.7476 68.4725V66.3032H29.3086Z" fill="#7F8C8D"/>
<path d="M44.7944 61.1987H27.2607C26.2214 61.1987 25.3711 62.0491 25.3711 63.0884V64.7028C25.3711 65.7427 26.2214 66.593 27.2607 66.593H44.7944C45.8337 66.593 46.684 65.7427 46.684 64.7028V63.0884C46.684 62.0491 45.8337 61.1987 44.7944 61.1987Z" fill="#7F8C8D"/>
<path d="M44.7944 62.9705H27.2607C26.59 62.9705 25.9995 62.6151 25.6639 62.0845C25.4799 62.3762 25.3711 62.7195 25.3711 63.0881V64.7025C25.3711 65.7424 26.2214 66.5927 27.2607 66.5927H44.7944C45.8337 66.5927 46.684 65.7424 46.684 64.7025V63.0881C46.684 62.7195 46.5758 62.3762 46.3912 62.0845C46.0562 62.6151 45.4651 62.9705 44.7944 62.9705Z" fill="#95A5A5"/>
</g>
<defs>
<clipPath id="clip0">
<rect width="72" height="72" fill="white"/>
</clipPath>
</defs>
</svg>
