<svg width="60" height="60" viewBox="0 0 60 60" fill="none" xmlns="http://www.w3.org/2000/svg">
<g clip-path="url(#clip0)">
<path d="M51.7911 17.7188H47.8882L51.7911 50.8932L55.694 48.2913V21.6216C55.6939 19.475 53.9376 17.7188 51.7911 17.7188Z" fill="#9ECBE2"/>
<path d="M47.8883 17.7188H8.20908C6.06244 17.7188 4.30615 19.475 4.30615 21.6217V48.2913L51.7912 50.8932V21.6216C51.7912 19.475 50.0349 17.7188 47.8883 17.7188Z" fill="#C4E2F2"/>
<path d="M55.6938 50.8931L51.791 59.9998H55.694C57.8406 59.9998 59.5969 58.2435 59.5969 56.0969V53.495L55.6938 50.8931Z" fill="#7F8C8D"/>
<path d="M55.6941 56.0974V50.8936L0.40332 53.4955V56.0974C0.40332 58.2439 2.15961 60.0002 4.30625 60.0002H51.7913C53.9379 60.0002 55.6941 58.2439 55.6941 56.0974Z" fill="#95A5A5"/>
<path d="M29.0244 52.1943V56.0973C29.0244 56.6362 29.4613 57.073 30.0001 57.073C30.539 57.073 30.9758 56.6362 30.9758 56.0973V52.1943H29.0244Z" fill="#5D6D6E"/>
<path d="M55.6935 48.2915H51.7907L49.9058 50.8934L55.6935 53.4954H59.5965L55.6935 48.2915Z" fill="#5D6D6F"/>
<path d="M4.30625 48.2915L0.40332 53.4954H55.6941L51.7913 48.2915H4.30625Z" fill="#7F8C8D"/>
<path d="M39.2394 10.9648H37.5703V31.9427H39.2394C42.1474 29.3782 43.9852 25.6268 43.9852 21.4538C43.9852 17.2809 42.1474 13.5296 39.2394 10.9648Z" fill="#C4E2F2"/>
<path d="M37.5702 12.228H31.3198V30.6799H37.5702C39.1329 28.2158 40.0822 24.986 40.0822 21.4538C40.0822 17.9222 39.1328 14.6922 37.5702 12.228Z" fill="white"/>
<path d="M37.5703 30.6797L30 35.439C33.5385 35.439 36.7736 34.1174 39.2394 31.9427C38.7163 31.4814 38.158 31.0595 37.5703 30.6797Z" fill="#C4E2F2"/>
<path d="M30 7.46875C30.0002 7.46875 37.5704 12.2281 37.5704 12.2281C38.1582 11.848 38.7165 11.4264 39.2395 10.9652C36.7736 8.79039 33.5385 7.46875 30 7.46875Z" fill="#C4E2F2"/>
<path d="M30.0005 7.46875L33.9219 13.9008C35.2271 13.5189 36.453 12.9504 37.5704 12.228C35.7215 9.31223 33.0136 7.46887 30.0005 7.46875Z" fill="white"/>
<path d="M33.9218 29.0068L30 35.4389C33.0131 35.4389 35.7212 33.5954 37.5704 30.6796C36.4528 29.9573 35.227 29.3889 33.9218 29.0068Z" fill="white"/>
<path d="M26.0785 11.7069L20.7598 10.9653C17.852 13.5297 16.0146 17.2812 16.0146 21.4536C16.0146 25.6261 17.8519 29.3775 20.7598 31.9419L26.0785 31.2003L28.6287 21.4534L26.0785 11.7069Z" fill="white"/>
<path d="M33.922 13.9009H26.0783C25.6099 16.0803 25.3379 18.6735 25.3379 21.454C25.3379 24.2345 25.6099 26.8276 26.0783 29.0071H33.922C34.3904 26.8276 34.6613 24.2345 34.6613 21.454C34.6613 18.6735 34.3904 16.0803 33.922 13.9009Z" fill="white"/>
<path d="M20.7598 10.9656C22.2768 12.3038 24.0866 13.3196 26.0784 13.9008L29.9998 7.46875C26.4614 7.46875 23.2256 8.79051 20.7598 10.9656Z" fill="white"/>
<path d="M26.0784 29.0068C24.0865 29.5882 22.2766 30.6039 20.7598 31.942C23.2256 34.1171 26.4614 35.4389 29.9999 35.4389L26.0784 29.0068Z" fill="white"/>
<path d="M29.9999 7.46875C31.6442 7.46875 33.0921 10.0343 33.9223 13.9008C32.6773 14.2661 31.3611 14.4613 29.9999 14.4613C28.6387 14.4613 27.3224 14.2661 26.0786 13.9008C26.909 10.0343 28.3569 7.46875 29.9999 7.46875Z" fill="white"/>
<path d="M33.9223 29.0068C33.0921 32.8733 31.6441 35.4389 29.9999 35.4389C28.3569 35.4389 26.909 32.8733 26.0786 29.0068C27.3224 28.6415 28.6388 28.4463 29.9999 28.4463C31.3612 28.4464 32.6773 28.6415 33.9223 29.0068Z" fill="white"/>
<path d="M30.0002 6.49316C21.7506 6.49316 15.0391 13.2046 15.0391 21.454C15.0391 29.7034 21.7505 36.415 30.0002 36.415C38.2497 36.415 44.961 29.7035 44.961 21.4541C44.961 13.2047 38.2497 6.49316 30.0002 6.49316ZM42.9732 20.4783H35.6262C35.5797 18.4328 35.3867 16.4061 35.0512 14.5562C36.5383 14.0215 37.9399 13.2509 39.2007 12.2652C41.3377 14.4048 42.7352 17.2826 42.9732 20.4783ZM32.3693 31.03C31.5245 33.5643 30.565 34.4636 30.0002 34.4636C29.4353 34.4636 28.4758 33.5644 27.631 31.03C27.4928 30.6156 27.366 30.1768 27.2485 29.7201C28.1466 29.5252 29.0683 29.4224 30.0002 29.4224C30.9322 29.4224 31.8537 29.5252 32.7518 29.7201C32.6344 30.1768 32.5075 30.6156 32.3693 31.03ZM34.6325 30.2779C35.715 30.6916 36.7429 31.25 37.6866 31.943C36.353 32.923 34.8268 33.6551 33.1758 34.0708C33.7662 33.0525 34.2525 31.7535 34.6325 30.2779ZM26.8246 34.0709C25.1737 33.6552 23.6473 32.923 22.3137 31.9431C23.2575 31.2501 24.2853 30.6917 25.368 30.278C25.7479 31.7535 26.2341 33.0525 26.8246 34.0709ZM30.0002 27.4709C28.929 27.4709 27.8691 27.5868 26.8368 27.8106C26.545 26.1603 26.3715 24.3348 26.3269 22.4298H33.6735C33.629 24.3348 33.4554 26.1603 33.1636 27.8106C32.1313 27.5868 31.0715 27.4709 30.0002 27.4709ZM26.3269 20.4783C26.3715 18.5733 26.545 16.7478 26.8368 15.0974C27.8691 15.3211 28.929 15.4371 30.0002 15.4371C31.0714 15.4371 32.1312 15.3212 33.1635 15.0974C33.4553 16.7478 33.6289 18.5732 33.6734 20.4783H26.3269ZM27.631 11.8782C28.4758 9.34387 29.4353 8.44457 30.0002 8.44457C30.565 8.44457 31.5245 9.34375 32.3693 11.8782C32.5074 12.2924 32.6343 12.7313 32.7518 13.1881C31.8536 13.383 30.9322 13.4857 30.0002 13.4857C29.0682 13.4857 28.1466 13.383 27.2485 13.1881C27.366 12.7314 27.4929 12.2924 27.631 11.8782ZM25.368 12.6302C24.2853 12.2165 23.2575 11.6581 22.3137 10.9652C23.6474 9.98512 25.1738 9.25305 26.8246 8.83738C26.2341 9.85562 25.748 11.1546 25.368 12.6302ZM33.1758 8.83738C34.8268 9.25305 36.353 9.98523 37.6867 10.9652C36.7429 11.6582 35.7152 12.2166 34.6325 12.6303C34.2525 11.1546 33.7662 9.85562 33.1758 8.83738ZM20.7995 12.2652C22.0605 13.2509 23.4619 14.0215 24.949 14.5562C24.6135 16.4061 24.4206 18.4328 24.374 20.4783H17.027C17.2652 17.2826 18.6627 14.4048 20.7995 12.2652ZM17.0272 22.4297H24.3741C24.4206 24.4752 24.6136 26.502 24.9491 28.3517C23.462 28.8864 22.0604 29.6571 20.7997 30.6428C18.6627 28.5033 17.2652 25.6254 17.0272 22.4297ZM39.2008 30.6428C37.9399 29.6571 36.5384 28.8865 35.0513 28.3517C35.3868 26.5019 35.5797 24.4751 35.6263 22.4296H42.9733C42.7352 25.6255 41.3377 28.5034 39.2008 30.6428Z" fill="#008795"/>
<path d="M46.6798 7.94115H48.1686C48.7074 7.94115 49.1443 7.50439 49.1443 6.96545C49.1443 6.4265 48.7074 5.98975 48.1686 5.98975H44.4889C44.4811 5.98975 44.4736 5.9908 44.4657 5.99092C44.4415 5.99139 44.4173 5.99221 44.3933 5.99455C44.3761 5.99619 44.3594 5.99936 44.3426 6.00182C44.328 6.00404 44.3134 6.00557 44.2989 6.0085C44.2809 6.01201 44.2636 6.01693 44.246 6.02139C44.2328 6.02479 44.2193 6.0276 44.2062 6.0317C44.1893 6.03674 44.173 6.04307 44.1566 6.04904C44.1431 6.05396 44.1294 6.05842 44.116 6.06393C44.1008 6.07014 44.0862 6.07764 44.0713 6.08467C44.0572 6.09135 44.043 6.09756 44.0292 6.10482C44.0153 6.11221 44.0019 6.12088 43.9883 6.12885C43.9745 6.13705 43.9606 6.1449 43.9471 6.15381C43.9325 6.16354 43.9187 6.17432 43.9047 6.18486C43.8933 6.19342 43.8814 6.20139 43.8703 6.21064C43.847 6.22975 43.8247 6.2499 43.8034 6.27111C43.7739 6.30088 43.7535 6.32326 43.7341 6.34682C43.7249 6.35818 43.7168 6.37002 43.7081 6.38174C43.6977 6.39568 43.6869 6.40916 43.6773 6.42357C43.668 6.43752 43.6599 6.45182 43.6514 6.46611C43.6435 6.47912 43.6353 6.49201 43.6282 6.50537C43.6203 6.5199 43.6138 6.5349 43.6067 6.5499C43.6001 6.56385 43.5933 6.57756 43.5872 6.59197C43.5812 6.6065 43.5764 6.62139 43.571 6.63604C43.5655 6.65127 43.5596 6.66639 43.5548 6.68197C43.5503 6.69697 43.547 6.71197 43.5432 6.72709C43.5394 6.74279 43.5349 6.7585 43.5316 6.77443C43.5281 6.79201 43.526 6.80982 43.5235 6.82764C43.5215 6.84147 43.519 6.85494 43.5176 6.86889C43.5144 6.901 43.5128 6.93334 43.5128 6.96568V10.645C43.5128 11.184 43.9496 11.6207 44.4885 11.6207C45.0273 11.6207 45.4642 11.184 45.4642 10.645V9.55025C51.3589 17.1971 50.8039 28.2474 43.7986 35.2528C37.439 41.6125 27.6189 42.8091 19.9179 38.1633C19.4566 37.885 18.8566 38.0334 18.5784 38.4949C18.3 38.9564 18.4485 39.5559 18.9099 39.8343C22.2464 41.8471 26.1186 42.9078 30.0245 42.9078C30.8396 42.9078 31.6564 42.8616 32.4699 42.7682C37.3277 42.2105 41.7224 40.0887 45.1785 36.6328C53.0136 28.7978 53.5137 16.3637 46.6798 7.94115Z" fill="#6B962A"/>
<path d="M16.292 36.5263C16.3024 36.5124 16.3132 36.4989 16.3228 36.4845C16.3321 36.4706 16.3402 36.4563 16.3487 36.442C16.3566 36.4289 16.3648 36.4161 16.3719 36.4027C16.3798 36.388 16.3865 36.3729 16.3935 36.3579C16.4001 36.3441 16.4068 36.3305 16.4128 36.3163C16.4189 36.3017 16.4237 36.2867 16.4291 36.2717C16.4346 36.2564 16.4402 36.2417 16.4452 36.226C16.4497 36.211 16.453 36.196 16.4568 36.1809C16.4606 36.1652 16.4651 36.1495 16.4684 36.1335C16.4719 36.1159 16.474 36.0981 16.4765 36.0803C16.4785 36.0665 16.481 36.053 16.4824 36.0391C16.4856 36.007 16.4872 35.9747 16.4872 35.9423V32.2629C16.4872 31.724 16.0504 31.2872 15.5115 31.2872C14.9727 31.2872 14.5358 31.724 14.5358 32.2629V33.3577C8.64107 25.7109 9.19607 14.6605 16.2014 7.65519C22.5608 1.29554 32.3808 0.0987044 40.0818 4.7446C40.5434 5.02328 41.143 4.87468 41.4212 4.41308C41.6997 3.9516 41.5512 3.35206 41.0897 3.07363C37.0569 0.640814 32.2413 -0.401335 27.5299 0.139603C22.6722 0.697416 18.2776 2.8191 14.8213 6.27519C6.98638 14.1102 6.48646 26.5443 13.3204 34.9668H11.8315C11.2927 34.9668 10.8558 35.4036 10.8558 35.9425C10.8558 36.4814 11.2927 36.9182 11.8315 36.9182H15.5112C15.5433 36.9182 15.5754 36.9166 15.6075 36.9134C15.6222 36.912 15.6363 36.9092 15.651 36.9072C15.668 36.9047 15.6851 36.9027 15.7018 36.8993C15.7185 36.8961 15.7345 36.8915 15.7507 36.8874C15.7652 36.8838 15.7799 36.8805 15.7943 36.8763C15.8101 36.8714 15.8255 36.8655 15.8412 36.8598C15.8556 36.8547 15.8702 36.8499 15.8845 36.844C15.8991 36.8379 15.9131 36.8309 15.9273 36.8241C15.9418 36.8172 15.9566 36.8107 15.971 36.803C15.9847 36.7957 15.9975 36.7874 16.0109 36.7795C16.0249 36.771 16.0392 36.763 16.0531 36.7538C16.0675 36.7442 16.0811 36.7335 16.0948 36.7231C16.1064 36.7144 16.1183 36.7063 16.1297 36.6971C16.153 36.678 16.1753 36.6578 16.1966 36.6366C16.2261 36.6068 16.2465 36.5845 16.2659 36.5609C16.2751 36.5499 16.2832 36.5379 16.292 36.5263Z" fill="#6B962A"/>
</g>
<defs>
<clipPath id="clip0">
<rect width="60" height="60" fill="white"/>
</clipPath>
</defs>
</svg>
