<svg width="38" height="38" viewBox="0 0 38 38" fill="none" xmlns="http://www.w3.org/2000/svg">
<path fill-rule="evenodd" clip-rule="evenodd" d="M19 38C29.4934 38 38 29.4934 38 19C38 8.50659 29.4934 0 19 0C8.50659 0 0 8.50659 0 19C0 29.4934 8.50659 38 19 38Z" fill="#0077B5"/>
<path d="M24.9971 25.0001V24.9996H25.0001V20.5986C25.0001 18.4456 24.5366 16.7871 22.0196 16.7871C20.8096 16.7871 19.9976 17.4511 19.6661 18.0806H19.6311V16.9881H17.2446V24.9996H19.7296V21.0326C19.7296 19.9881 19.9276 18.9781 21.2211 18.9781C22.4956 18.9781 22.5146 20.1701 22.5146 21.0996V25.0001H24.9971Z" fill="white"/>
<path d="M13.1978 16.9883H15.6858V24.9998H13.1978V16.9883Z" fill="white"/>
<path d="M14.441 13C13.6455 13 13 13.6455 13 14.441C13 15.2365 13.6455 15.8955 14.441 15.8955C15.2365 15.8955 15.882 15.2365 15.882 14.441C15.8815 13.6455 15.236 13 14.441 13V13Z" fill="white"/>
</svg>
