<svg width="117" height="48" viewBox="0 0 117 48" fill="none" xmlns="http://www.w3.org/2000/svg">
<path d="M50 12.4425V9H53.5311V12.4425H50ZM50.0905 34.7281V17.0627H53.4405V34.7281H50.0905Z" fill="#282829"/>
<path d="M60.2312 10.9023H69.1947C71.0055 10.9023 72.3636 11.1741 73.269 11.8083C74.1744 12.4424 74.8082 13.2577 75.0798 14.3448C75.3514 15.4319 75.5325 16.7908 75.5325 18.5121C75.5325 20.1427 75.3514 21.5016 75.0798 22.5887C74.8082 23.6758 74.1744 24.4911 73.269 25.1253C72.3636 25.7594 70.915 26.1218 69.1041 26.1218H63.6717V34.6374H60.1406V10.9023H60.2312ZM68.0177 23.2229C69.1947 23.2229 70.1001 23.0417 70.7339 22.7699C71.2771 22.4981 71.6393 22.0452 71.8204 21.411C72.0014 20.7769 72.092 19.871 72.092 18.6027C72.092 17.3344 72.0014 16.4285 71.8204 15.7943C71.7298 15.1602 71.3677 14.7072 70.7339 14.4354C70.1001 14.1637 69.2852 13.9825 68.0177 13.9825H63.7622V23.2229H68.0177Z" fill="#282829"/>
<path d="M80.9646 34.4566V31.467C83.4092 31.7388 85.4917 31.8294 87.2119 31.8294C88.2984 31.8294 89.1133 31.7388 89.7471 31.6482C90.3808 31.5576 90.8336 31.3764 91.1957 31.1047C91.5579 30.8329 91.739 30.4705 91.8295 30.0175C91.92 29.5646 92.0106 28.9304 92.0106 28.0245C92.0106 27.028 91.92 26.2127 91.8295 25.8503C91.739 25.3974 91.4673 25.1256 91.1957 24.9444C90.8336 24.7632 90.2903 24.582 89.4754 24.4914L84.8579 23.8573C83.6808 23.6761 82.6849 23.3137 82.0511 22.8608C81.4173 22.3172 80.9646 21.6831 80.7836 20.7772C80.6025 19.9618 80.4214 18.7841 80.4214 17.5159C80.4214 15.704 80.693 14.2545 81.3268 13.258C81.87 12.2615 82.7754 11.6274 83.8619 11.1744C84.9484 10.7215 86.3971 10.6309 88.1173 10.6309C89.2944 10.6309 90.4714 10.7215 91.6484 10.812C92.8254 10.9026 93.8214 11.0838 94.6362 11.265V14.1639C93.0065 13.8922 91.1052 13.711 88.9322 13.711C87.8457 13.711 86.9403 13.8016 86.3065 13.8922C85.6727 13.9828 85.22 14.1639 84.8579 14.4357C84.4957 14.7075 84.3146 15.0699 84.2241 15.5228C84.1335 15.9758 84.043 16.5193 84.043 17.3347C84.043 18.2406 84.1335 18.8747 84.2241 19.3277C84.3146 19.7807 84.4957 20.0524 84.8579 20.2336C85.1295 20.4148 85.6727 20.5054 86.3971 20.596L91.1052 21.2301C92.1917 21.4113 93.0065 21.5925 93.6403 21.9549C94.2741 22.3172 94.8173 22.8608 95.089 23.6761C95.4511 24.582 95.6322 25.9409 95.6322 27.7527C95.6322 29.7458 95.3606 31.2858 94.8173 32.2823C94.2741 33.3695 93.4592 34.0036 92.4633 34.4566C91.4673 34.8189 90.1092 35.0001 88.389 35.0001C85.7633 35.0001 83.3187 34.8189 80.9646 34.4566Z" fill="#282829"/>
<path d="M101.698 10.9023H110.662C112.473 10.9023 113.831 11.1741 114.736 11.8083C115.642 12.4424 116.275 13.2577 116.547 14.3448C116.819 15.4319 117 16.7908 117 18.5121C117 20.1427 116.819 21.5016 116.547 22.5887C116.275 23.6758 115.642 24.4911 114.736 25.1253C113.831 25.7594 112.382 26.1218 110.571 26.1218H105.139V34.6374H101.608V10.9023H101.698ZM109.485 23.2229C110.662 23.2229 111.567 23.0417 112.201 22.7699C112.744 22.4981 113.107 22.0452 113.288 21.411C113.469 20.7769 113.559 19.871 113.559 18.6027C113.559 17.3344 113.469 16.4285 113.288 15.7943C113.107 15.1602 112.744 14.7072 112.201 14.4354C111.658 14.1637 110.753 13.9825 109.485 13.9825H105.23V23.2229H109.485Z" fill="#282829"/>
<path d="M19.0754 48L0 36.7792V8.1039L8.14286 0H38V36.9351L19.0754 48ZM3.39286 34.7532L19.0754 43.9481L34.6071 34.8312V3.50649H9.34921L3.39286 9.74026V34.7532Z" fill="#008795"/>
<path d="M19.6923 35.8441L33 22.4415L19.4615 8.80518L17 11.2987L28.1539 22.4415L17.3077 33.3506L19.6923 35.8441Z" fill="#D0DD28"/>
<path d="M14.4616 30.7013L16.8462 28.2078L10.6923 22.2078L16.7693 16.2857L14.3077 13.8701L5.84619 22.2078L14.4616 30.7013Z" fill="#D0DD28"/>
<path d="M19.5538 18.7204L15.9639 22.3569L19.5538 25.9934L23.1437 22.3569L19.5538 18.7204Z" fill="#D0DD28"/>
</svg>
