<svg width="24" height="24" viewBox="0 0 24 24" fill="none" xmlns="http://www.w3.org/2000/svg">
<g clip-path="url(#clip0)">
<path d="M21.892 2.85938H2.11073C1.78603 2.85938 1.48205 2.9392 1.20703 3.07078L11.9545 13.8182L14.3633 11.5032C14.3633 11.5032 14.3635 11.503 14.3636 11.5029C14.3636 11.5028 14.3638 11.5027 14.3638 11.5027L22.796 3.07097C22.521 2.9393 22.2168 2.85938 21.892 2.85938Z" fill="white"/>
<path d="M23.7906 4.06543L15.8555 12.0001L23.7903 19.935C23.9219 19.66 24.0017 19.356 24.0017 19.0313V4.9688C24.0017 4.64429 23.9221 4.34035 23.7906 4.06543Z" fill="white"/>
<path d="M0.211406 4.06494C0.0798281 4.33996 0 4.64394 0 4.96864V19.0311C0 19.3557 0.0797344 19.6597 0.211219 19.9346L8.14636 11.9999L0.211406 4.06494Z" fill="white"/>
<path d="M14.8573 12.9942L12.4481 15.3095C12.3107 15.4469 12.1308 15.5155 11.951 15.5155C11.7711 15.5155 11.5911 15.4469 11.4538 15.3095L9.13841 12.9941L1.20312 20.9289C1.47819 21.0606 1.78236 21.1405 2.10716 21.1405H21.8884C22.2131 21.1405 22.5171 21.0607 22.7921 20.9291L14.8573 12.9942Z" fill="white"/>
</g>
<defs>
<clipPath id="clip0">
<rect width="24" height="24" fill="white"/>
</clipPath>
</defs>
</svg>
