<svg width="60" height="60" viewBox="0 0 60 60" fill="none" xmlns="http://www.w3.org/2000/svg">
<path d="M23.4375 5.8125C23.4375 4.15565 24.7806 2.8125 26.4375 2.8125H54.1875C55.8444 2.8125 57.1875 4.15565 57.1875 5.8125V54.1875C57.1875 55.8444 55.8444 57.1875 54.1875 57.1875H26.4375C24.7806 57.1875 23.4375 55.8444 23.4375 54.1875V5.8125Z" fill="#95A5A5"/>
<path d="M27.1875 6.5625H53.4375V49.6875H27.1875V6.5625Z" fill="#C4E2F2"/>
<path d="M37.5 52.5H43.125V54.375H37.5V52.5Z" fill="white"/>
<path d="M38.4375 18.75H29.0625V14.0625H33.75C34.3656 14.0625 34.9751 14.1837 35.5438 14.4193C36.1125 14.6549 36.6293 15.0002 37.0646 15.4354C37.4998 15.8707 37.8451 16.3875 38.0807 16.9562C38.3163 17.5249 38.4375 18.1344 38.4375 18.75Z" fill="#6B962A"/>
<path d="M12.1875 45.9375V18.75C12.1875 17.5068 12.6814 16.3145 13.5604 15.4354C14.4395 14.5564 15.6318 14.0625 16.875 14.0625H33.75C32.5068 14.0625 31.3145 14.5564 30.4354 15.4354C29.5564 16.3145 29.0625 17.5068 29.0625 18.75V41.25C29.0625 42.4932 28.5686 43.6855 27.6896 44.5646C26.8105 45.4436 25.6182 45.9375 24.375 45.9375H12.1875Z" fill="#D0DD28"/>
<path d="M24.375 45.9375H7.5C6.2568 45.9375 5.06451 45.4436 4.18544 44.5646C3.30636 43.6855 2.8125 42.4932 2.8125 41.25H19.6875C19.6875 42.4932 20.1814 43.6855 21.0604 44.5646C21.9395 45.4436 23.1318 45.9375 24.375 45.9375Z" fill="#6B962A"/>
<path d="M29.0625 18.75H46.6875C48.3444 18.75 49.6875 20.0931 49.6875 21.75V37.3125C49.6875 38.9694 48.3444 40.3125 46.6875 40.3125H29.0625V18.75Z" fill="#008795"/>
<path d="M29.0625 22.5H49.6875V27.1875H29.0625V22.5Z" fill="#3C3F4D"/>
<path d="M43.125 36.5625C44.6783 36.5625 45.9375 35.3033 45.9375 33.75C45.9375 32.1967 44.6783 30.9375 43.125 30.9375C41.5717 30.9375 40.3125 32.1967 40.3125 33.75C40.3125 35.3033 41.5717 36.5625 43.125 36.5625Z" fill="#FCA713"/>
<path d="M39.375 36.5625C40.9283 36.5625 42.1875 35.3033 42.1875 33.75C42.1875 32.1967 40.9283 30.9375 39.375 30.9375C37.8217 30.9375 36.5625 32.1967 36.5625 33.75C36.5625 35.3033 37.8217 36.5625 39.375 36.5625Z" fill="#DB4132"/>
<path d="M41.25 35.8459C41.7678 35.8459 42.1875 34.9075 42.1875 33.7501C42.1875 32.5926 41.7678 31.6543 41.25 31.6543C40.7322 31.6543 40.3125 32.5926 40.3125 33.7501C40.3125 34.9075 40.7322 35.8459 41.25 35.8459Z" fill="#FB685B"/>
<path d="M15.9375 16.875H26.25V18.75H15.9375V16.875Z" fill="#6B962A"/>
<path d="M15 21.5625H22.5V23.4375H15V21.5625Z" fill="#6B962A"/>
<path d="M24.375 21.5625H26.25V23.4375H24.375V21.5625Z" fill="#6B962A"/>
<path d="M15 26.25H22.5V28.125H15V26.25Z" fill="#6B962A"/>
<path d="M24.375 26.25H26.25V28.125H24.375V26.25Z" fill="#6B962A"/>
<path d="M15 30.9375H22.5V32.8125H15V30.9375Z" fill="#6B962A"/>
<path d="M24.375 30.9375H26.25V32.8125H24.375V30.9375Z" fill="#6B962A"/>
<path d="M15 35.625H22.5V37.5H15V35.625Z" fill="#6B962A"/>
<path d="M24.375 35.625H26.25V37.5H24.375V35.625Z" fill="#6B962A"/>
</svg>
