<svg width="60" height="60" viewBox="0 0 60 60" fill="none" xmlns="http://www.w3.org/2000/svg">
<path d="M13.4375 5.8125C13.4375 4.15565 14.7806 2.8125 16.4375 2.8125H44.1875C45.8444 2.8125 47.1875 4.15565 47.1875 5.8125V54.1875C47.1875 55.8444 45.8444 57.1875 44.1875 57.1875H16.4375C14.7806 57.1875 13.4375 55.8444 13.4375 54.1875V5.8125Z" fill="#008795"/>
<path d="M17.1875 6.5625H43.4375V49.6875H17.1875V6.5625Z" fill="#C4E2F2"/>
<path d="M27.5 52.5H33.125V54.375H27.5V52.5Z" fill="white"/>
<path d="M43 17H33V12H38C38.6566 12 39.3068 12.1293 39.9134 12.3806C40.52 12.6319 41.0712 13.0002 41.5355 13.4645C41.9998 13.9288 42.3681 14.48 42.6194 15.0866C42.8707 15.6932 43 16.3434 43 17Z" fill="#6B962A"/>
<path d="M15 46V17C15 15.6739 15.5268 14.4021 16.4645 13.4645C17.4021 12.5268 18.6739 12 20 12H38C36.6739 12 35.4021 12.5268 34.4645 13.4645C33.5268 14.4021 33 15.6739 33 17V41C33 42.3261 32.4732 43.5979 31.5355 44.5355C30.5979 45.4732 29.3261 46 28 46H15Z" fill="#D0DD28"/>
<path d="M28 46H10.7826C9.51418 46 8.29771 45.4732 7.40079 44.5355C6.50388 43.5979 6 42.3261 6 41H23.2174C23.2174 42.3261 23.7213 43.5979 24.6182 44.5355C25.5151 45.4732 26.7316 46 28 46Z" fill="#6B962A"/>
<path d="M19.4814 15.0571H30.4612V17.0535H19.4814V15.0571Z" fill="#6B962A"/>
<path d="M18.4834 20.0479H26.4687V22.0442H18.4834V20.0479Z" fill="#6B962A"/>
<path d="M28.4648 20.0479H30.4612V22.0442H28.4648V20.0479Z" fill="#6B962A"/>
<path d="M18.4834 25.0386H26.4687V27.0349H18.4834V25.0386Z" fill="#6B962A"/>
<path d="M28.4648 25.0386H30.4612V27.0349H28.4648V25.0386Z" fill="#6B962A"/>
<path d="M18.4834 30.0298H26.4687V32.0261H18.4834V30.0298Z" fill="#6B962A"/>
<path d="M28.4648 30.0298H30.4612V32.0261H28.4648V30.0298Z" fill="#6B962A"/>
<path d="M18.4834 35.0205H26.4687V37.0168H18.4834V35.0205Z" fill="#6B962A"/>
<path d="M28.4648 35.0205H30.4612V37.0168H28.4648V35.0205Z" fill="#6B962A"/>
</svg>
