<svg width="60" height="60" viewBox="0 0 60 60" fill="none" xmlns="http://www.w3.org/2000/svg">
<path d="M2.8125 12.2342V45.9373H27.1875V12.2342C27.1875 12.2342 2.8125 12.1873 2.8125 12.2342Z" fill="#C4E2F2"/>
<path d="M32.8125 12.2342V45.9373H57.1875V12.2342C57.1875 12.2342 32.8125 12.1873 32.8125 12.2342Z" fill="#C4E2F2"/>
<path d="M2.8125 45.9375H27.1875V49.6875C27.186 50.1843 26.988 50.6604 26.6367 51.0117C26.2854 51.363 25.8093 51.561 25.3125 51.5625H4.6875C4.19068 51.561 3.71462 51.363 3.36331 51.0117C3.012 50.6604 2.81398 50.1843 2.8125 49.6875V45.9375Z" fill="#008795"/>
<path d="M55.3125 51.5625H34.6875C34.1907 51.561 33.7146 51.363 33.3633 51.0117C33.012 50.6604 32.814 50.1843 32.8125 49.6875V45.9375H57.1875V49.6875C57.186 50.1843 56.988 50.6604 56.6367 51.0117C56.2854 51.363 55.8093 51.561 55.3125 51.5625Z" fill="#008795"/>
<path d="M57.1875 10.3125V12.2344C57.1875 12.2344 32.8125 12.1875 32.8125 12.2344V10.3125C32.814 9.81568 33.012 9.33962 33.3633 8.98831C33.7146 8.637 34.1907 8.43898 34.6875 8.4375H55.3125C55.8093 8.43898 56.2854 8.637 56.6367 8.98831C56.988 9.33962 57.186 9.81568 57.1875 10.3125Z" fill="#008795"/>
<path d="M27.1875 10.3125V12.2344C27.1875 12.2344 2.8125 12.1875 2.8125 12.2344V10.3125C2.81398 9.81568 3.012 9.33962 3.36331 8.98831C3.71462 8.637 4.19068 8.43898 4.6875 8.4375H25.3125C25.8093 8.43898 26.2854 8.637 26.6367 8.98831C26.988 9.33962 27.186 9.81568 27.1875 10.3125Z" fill="#008795"/>
<path d="M30 41.25C36.2132 41.25 41.25 36.2132 41.25 30C41.25 23.7868 36.2132 18.75 30 18.75C23.7868 18.75 18.75 23.7868 18.75 30C18.75 36.2132 23.7868 41.25 30 41.25Z" fill="#D0DD28"/>
<path d="M17.8125 47.8125H12.1875V49.6875H17.8125V47.8125Z" fill="white"/>
<path d="M47.8125 47.8125H42.1875V49.6875H47.8125V47.8125Z" fill="white"/>
<path d="M30 29.0625C29.8146 29.0625 29.6333 29.0075 29.4792 28.9045C29.325 28.8015 29.2048 28.6551 29.1339 28.4838C29.0629 28.3125 29.0443 28.124 29.0805 27.9421C29.1167 27.7602 29.206 27.5932 29.3371 27.4621C29.4682 27.331 29.6352 27.2417 29.8171 27.2055C29.999 27.1693 30.1875 27.1879 30.3588 27.2589C30.5301 27.3298 30.6765 27.45 30.7795 27.6042C30.8825 27.7583 30.9375 27.9396 30.9375 28.125H32.8125C32.8101 27.5454 32.6287 26.9807 32.293 26.5081C31.9574 26.0355 31.484 25.6782 30.9375 25.485V24.375H29.0625V25.485C28.4375 25.7051 27.9106 26.1394 27.575 26.7108C27.2395 27.2822 27.117 27.954 27.2293 28.607C27.3416 29.2601 27.6814 29.8524 28.1885 30.2789C28.6956 30.7055 29.3374 30.9388 30 30.9375C30.1854 30.9375 30.3667 30.9925 30.5208 31.0955C30.675 31.1985 30.7952 31.3449 30.8661 31.5162C30.9371 31.6875 30.9557 31.876 30.9195 32.0579C30.8833 32.2398 30.794 32.4068 30.6629 32.5379C30.5318 32.669 30.3648 32.7583 30.1829 32.7945C30.001 32.8307 29.8125 32.8121 29.6412 32.7411C29.4699 32.6702 29.3235 32.55 29.2205 32.3958C29.1175 32.2417 29.0625 32.0604 29.0625 31.875H27.1875C27.1899 32.4546 27.3713 33.0193 27.707 33.4919C28.0426 33.9645 28.516 34.3218 29.0625 34.515V35.625H30.9375V34.515C31.5625 34.2949 32.0894 33.8606 32.425 33.2892C32.7605 32.7178 32.883 32.046 32.7707 31.393C32.6584 30.7399 32.3186 30.1476 31.8115 29.7211C31.3044 29.2945 30.6626 29.0612 30 29.0625Z" fill="#008795"/>
<path d="M28.6171 37.6405L27.0815 38.7186L28.0678 40.1249C25.7676 39.6848 23.6856 38.475 22.1645 36.6943C20.6433 34.9137 19.7736 32.6683 19.6983 30.3276C19.623 27.9868 20.3467 25.6902 21.7503 23.8155C23.1538 21.9408 25.1537 20.5996 27.4209 20.0127L26.9521 18.1958C24.2961 18.8816 21.949 20.4434 20.2907 22.6286C18.6323 24.8138 17.7597 27.4945 17.8139 30.2372C17.8681 32.9798 18.846 35.624 20.5894 37.7419C22.3328 39.8599 24.7398 41.3277 27.4209 41.908L26.3896 42.6327L27.4687 44.1683L30.54 42.0177C30.7435 41.8751 30.8821 41.6576 30.9254 41.4129C30.9686 41.1682 30.9129 40.9163 30.7706 40.7127L28.6171 37.6405Z" fill="#008795"/>
<path d="M32.5742 18.0937L33.6054 17.369L32.531 15.8315L29.4598 17.9822C29.2562 18.1247 29.1176 18.3422 29.0744 18.5869C29.0311 18.8316 29.0868 19.0835 29.2292 19.2872L31.3798 22.3594L32.9182 21.2812L31.932 19.875C34.2322 20.315 36.3141 21.5249 37.8353 23.3055C39.3564 25.0862 40.2262 27.3316 40.3014 29.6723C40.3767 32.013 39.6531 34.3096 38.2495 36.1844C36.8459 38.0591 34.846 39.4002 32.5788 39.9872L33.0476 41.804C35.7037 41.1182 38.0507 39.5564 39.7091 37.3713C41.3674 35.1861 42.2401 32.5053 42.1858 29.7627C42.1316 27.02 41.1537 24.3758 39.4103 22.2579C37.6669 20.14 35.26 18.6721 32.5788 18.0919L32.5742 18.0937Z" fill="#008795"/>
<path d="M15.9375 29.0625H14.0625V30.9375H15.9375V29.0625Z" fill="#008795"/>
<path d="M12.1875 29.0625H10.3125V30.9375H12.1875V29.0625Z" fill="#008795"/>
<path d="M45.9375 29.0625H44.0625V30.9375H45.9375V29.0625Z" fill="#008795"/>
<path d="M49.6875 29.0625H47.8125V30.9375H49.6875V29.0625Z" fill="#008795"/>
</svg>
