<svg width="60" height="60" viewBox="0 0 60 60" fill="none" xmlns="http://www.w3.org/2000/svg">
<path d="M35.0305 29.9199C32.7947 28.4432 31.4704 25.2116 31.4704 22.5555V21.0625C31.4704 21.4509 31.1555 21.7657 30.7671 21.7657H29.5208C29.1325 21.7657 28.8176 21.4509 28.8176 21.0625V20.8429C26.5148 20.8429 24.648 19.6994 24.648 17.3966C24.648 15.0939 26.5148 13.2271 28.8176 13.2271V13.0075C28.8176 12.9255 28.8343 12.8479 28.8601 12.7748L28.86 12.7749C29.2934 7.82254 33.2059 3.86852 38.14 3.37352C37.9887 3.33965 37.832 3.32031 37.6704 3.32031H2.1443C0.96 3.32043 0 4.28043 0 5.46473V40.4655C0 41.6498 0.96 42.6098 2.1443 42.6098H19.0125C20.1533 39.5431 23.0006 38.3697 23.0006 38.3697L35.0306 33.7059L35.0322 33.7077L35.0306 33.7059V29.9199H35.0305Z" fill="#C4E2F2"/>
<path d="M2.48109 40.4658V5.4651C2.48109 4.2808 3.44109 3.3208 4.62539 3.3208H2.1443C0.96 3.3208 0 4.2808 0 5.4651V40.4658C0 41.6501 0.96 42.6101 2.1443 42.6101H4.62539C3.44109 42.6101 2.48109 41.6501 2.48109 40.4658Z" fill="#9ECBE2"/>
<path d="M2.1443 3.32031C0.96 3.32031 0 4.28043 0 5.46473V9.78109H28.8608C30.2783 6.30086 33.5299 3.76352 37.4168 3.37352C37.2655 3.33965 37.1088 3.32031 36.9472 3.32031C36.9472 3.32031 2.1443 3.32031 2.1443 3.32031Z" fill="#95A5A5"/>
<path d="M25.2707 15.2041H6.8416C6.34227 15.2041 5.9375 15.6089 5.9375 16.1082C5.9375 16.6075 6.34227 17.0123 6.8416 17.0123H24.6659C24.7263 16.3531 24.9397 15.7385 25.2707 15.2041Z" fill="#9ECBE2"/>
<path d="M29.5211 21.7653H29.5203C29.132 21.7653 28.8171 21.4504 28.8171 21.062V20.8424C27.8391 20.8424 26.9405 20.6354 26.2295 20.2217H6.8416C6.34227 20.2217 5.9375 20.6264 5.9375 21.1258C5.9375 21.6251 6.34227 22.0299 6.8416 22.0299H28.882C29.1316 22.03 29.3575 21.9289 29.5211 21.7653Z" fill="#9ECBE2"/>
<path d="M31.874 25.2397H6.8416C6.34227 25.2397 5.9375 25.6445 5.9375 26.1438C5.9375 26.6432 6.34227 27.0479 6.8416 27.0479H32.5916C32.2962 26.4713 32.0555 25.8601 31.874 25.2397Z" fill="#9ECBE2"/>
<path d="M6.8416 30.2578C6.34227 30.2578 5.9375 30.6626 5.9375 31.1619C5.9375 31.6612 6.34227 32.066 6.8416 32.066H35.03V30.2578H6.8416Z" fill="#9ECBE2"/>
<path d="M30.8614 35.322C30.772 35.2924 30.6767 35.2759 30.5773 35.2759H6.8416C6.34227 35.2759 5.9375 35.6806 5.9375 36.18C5.9375 36.6793 6.34227 37.0841 6.8416 37.0841H26.3164L30.8614 35.322Z" fill="#9ECBE2"/>
<path d="M2.48109 5.4651C2.48109 4.2808 3.44109 3.3208 4.62539 3.3208H2.1443C0.992813 3.3208 0 4.25291 0 5.4651V9.78146H2.48109V5.4651Z" fill="#7F8C8D"/>
<path d="M38.8589 3.32031C32.8421 3.32031 27.9648 8.19766 27.9648 14.2145V18.5256C28.6929 17.8507 29.7287 17.4839 30.74 17.6189V17.0761C30.74 16.6445 31.1084 16.3038 31.5357 16.3361C35.7477 16.6387 40.0342 15.3003 43.2753 13.1829C43.5778 12.9852 43.9785 13.0343 44.2244 13.2986C46.9953 16.277 46.9785 16.1618 46.9785 16.5507V17.6166C48.0869 17.4504 49.07 17.793 49.753 18.428V14.2144C49.7532 8.19777 44.8759 3.32031 38.8589 3.32031Z" fill="#7F8C8D"/>
<path d="M30.8889 14.2149C30.8889 8.6942 34.9961 4.13584 40.321 3.42123C39.8425 3.35701 39.355 3.3208 38.8589 3.3208C32.8421 3.3208 27.9648 8.19815 27.9648 14.215V18.5261C28.6929 17.8512 29.7287 17.4844 30.7398 17.6194V17.0766C30.7398 16.909 30.796 16.7555 30.8889 16.6319V14.2149Z" fill="#3C3F4D"/>
<path d="M38.9742 31.0106C37.2141 31.0106 35.6674 30.5275 34.4023 29.7191V33.9947L38.9546 39.6137L43.5068 33.9947V29.5986C42.2172 30.4881 40.6558 31.0106 38.9742 31.0106Z" fill="#FFBEAB"/>
<path d="M37.3177 30.8605C36.2325 30.6592 35.2534 30.2635 34.4023 29.7197V33.9953L37.3177 37.5939V30.8605Z" fill="#F7AF9F"/>
<path d="M55.5452 38.3699L43.5025 33.7061L38.9504 39.3251L34.3981 33.7061L22.3681 38.3699C22.3681 38.3699 17.9141 40.2011 17.9141 45.2786V56.5474C17.9141 57.1196 18.378 57.5836 18.9502 57.5836H58.9721C59.5394 57.5836 59.9993 57.1238 59.9993 56.5564V45.2786C59.9993 40.2011 55.5452 38.3699 55.5452 38.3699Z" fill="#D0DD28"/>
<path d="M20.8334 56.5473V43.9664C20.8334 40.4828 22.9297 38.5275 24.246 37.6431L22.372 38.3696C22.372 38.3696 17.918 40.2007 17.918 45.2783V56.5473C17.918 57.1195 18.3819 57.5833 18.954 57.5833H21.8694C21.2972 57.5835 20.8334 57.1195 20.8334 56.5473Z" fill="#6B962A"/>
<path d="M44.2227 13.0105C43.9767 12.7463 43.5762 12.6971 43.2736 12.8949C40.0325 15.0121 35.7459 16.3505 31.534 16.048C31.1067 16.0157 30.7383 16.3565 30.7383 16.7881V23.2964C30.7383 27.4793 34.0158 31.2999 38.9735 31.2999C43.3867 31.2999 46.9771 27.7095 46.9771 23.2964V16.2627C46.9768 15.8738 46.9936 15.989 44.2227 13.0105Z" fill="#FFCDBF"/>
<path d="M33.6536 23.2959V16.0644C32.9484 16.1019 32.2402 16.0983 31.534 16.0475C31.1068 16.0152 30.7383 16.356 30.7383 16.7876V23.2959C30.7383 27.4788 34.0158 31.2994 38.9735 31.2994C39.4309 31.2994 39.8788 31.2587 40.3153 31.1846C36.5389 30.5442 33.6536 27.2516 33.6536 23.2959Z" fill="#FFBEAB"/>
<path d="M44.4496 42.2127L47.8536 35.3905L43.5053 33.7065L38.9531 39.3256L43.3914 42.4776C43.7505 42.7327 44.2527 42.607 44.4496 42.2127Z" fill="#6B962A"/>
<path d="M33.4627 42.2127L30.0586 35.3905L34.407 33.7065L38.9591 39.3256L34.5209 42.4776C34.1616 42.7327 33.6594 42.607 33.4627 42.2127Z" fill="#6B962A"/>
<path d="M38.96 39.3291V39.3252L38.9573 39.3272L38.9546 39.3252V39.3291L35.7266 41.6217L37.2525 43.9182C38.4835 43.9182 39.4314 43.9182 40.6624 43.9182L42.1883 41.6217L38.96 39.3291Z" fill="#008795"/>
<path d="M34.9375 57.5835H42.9734L40.6604 43.918C39.4293 43.918 38.4814 43.918 37.2504 43.918L34.9375 57.5835Z" fill="#008795"/>
<path d="M40.5727 40.4743L38.9601 39.3291V39.3252L38.9574 39.3272L38.9546 39.3252V39.3291L35.7266 41.6217L37.2525 43.9182C38.4397 43.9182 39.3617 43.9182 40.4832 43.9182L39.2304 42.0327C39.0782 41.8037 39.1354 41.4953 39.3595 41.3361L40.5727 40.4743Z" fill="#008795"/>
<path d="M37.2505 43.918L34.9375 57.5837H38.1684L40.4813 43.9181C39.3549 43.918 38.4422 43.918 37.2505 43.918Z" fill="#008795"/>
<path d="M47.5073 27.9896H39.9275C39.4282 27.9896 39.0234 27.5849 39.0234 27.0855C39.0234 26.5862 39.4282 26.1814 39.9275 26.1814H47.5073C48.6294 26.1814 49.5423 25.2686 49.5423 24.1465V20.1932C49.5423 19.6938 49.9471 19.2891 50.4464 19.2891C50.9457 19.2891 51.3505 19.6938 51.3505 20.1932V24.1465C51.3505 26.2656 49.6266 27.9896 47.5073 27.9896Z" fill="#3C3F4D"/>
<path d="M53.234 57.584V47.0242C53.234 46.5249 52.8292 46.1201 52.3299 46.1201C51.8305 46.1201 51.4258 46.5249 51.4258 47.0242V57.584H53.234Z" fill="#6B962A"/>
<path d="M26.3082 57.584V47.0242C26.3082 46.5249 25.9034 46.1201 25.4041 46.1201C24.9048 46.1201 24.5 46.5249 24.5 47.0242V57.584H26.3082Z" fill="#6B962A"/>
<path d="M49.5838 16.1086C49.0845 16.1086 48.6797 15.7038 48.6797 15.2045V12.8157C48.2379 7.9951 44.1063 4.22482 39.2566 4.22482H38.4656C33.6161 4.22482 29.4844 7.99498 29.0426 12.8156V14.8069C29.0426 15.3062 28.6378 15.711 28.1385 15.711C27.6391 15.711 27.2344 15.3062 27.2344 14.8069V12.7752C27.2344 12.7488 27.2355 12.7226 27.2378 12.6963C27.4826 9.89834 28.7589 7.3058 30.8313 5.39623C32.9168 3.47471 35.6279 2.4165 38.4655 2.4165H39.2565C42.0941 2.4165 44.8053 3.47471 46.8908 5.39623C48.9633 7.30592 50.2396 9.89846 50.4844 12.6964C50.4866 12.7227 50.4878 12.7489 50.4878 12.7753V15.2045C50.4879 15.7037 50.083 16.1086 49.5838 16.1086Z" fill="#E4EAF8"/>
<path d="M39.8156 28.4193H38.7834C38.0465 28.4193 37.4492 27.822 37.4492 27.0852C37.4492 26.3483 38.0465 25.751 38.7834 25.751H39.8156C40.5525 25.751 41.1498 26.3483 41.1498 27.0852C41.1498 27.822 40.5525 28.4193 39.8156 28.4193Z" fill="#7F8C8D"/>
<path d="M23.9258 17.3966C23.9258 15.0938 25.8161 13.2271 28.148 13.2271V21.566C25.8161 21.566 23.9258 19.6993 23.9258 17.3966Z" fill="#E4EAF8"/>
<path d="M26.3368 17.3966C26.3368 15.9792 27.0536 14.7279 28.148 13.9745V13.2271C25.8161 13.2271 23.9258 15.0938 23.9258 17.3966C23.9258 19.6993 25.8161 21.5661 28.148 21.5661V20.8187C27.0536 20.0653 26.3368 18.814 26.3368 17.3966Z" fill="#D8DCE5"/>
<path d="M28.797 12.3042H30.0433C30.4316 12.3042 30.7465 12.6191 30.7465 13.0074V21.7856C30.7465 22.174 30.4316 22.4888 30.0433 22.4888H28.797C28.4086 22.4888 28.0938 22.174 28.0938 21.7856V13.0074C28.0938 12.6191 28.4086 12.3042 28.797 12.3042Z" fill="#D8DCE5"/>
<path d="M53.7942 17.3966C53.7942 15.0938 51.9083 13.2271 49.582 13.2271V21.566C51.9083 21.566 53.7942 19.6993 53.7942 17.3966Z" fill="#E4EAF8"/>
<path d="M48.9222 12.3042H47.7931C47.4047 12.3042 47.0898 12.6191 47.0898 13.0074V21.7856C47.0898 22.174 47.4047 22.4888 47.7931 22.4888H48.9222C49.3106 22.4888 49.6254 22.174 49.6254 21.7856V13.0074C49.6254 12.6191 49.3107 12.3042 48.9222 12.3042Z" fill="#D8DCE5"/>
<path d="M30.0326 21.7857V13.0076C30.0326 12.7452 30.1766 12.5168 30.3896 12.3958C30.2873 12.3378 30.1693 12.3042 30.0433 12.3042H28.797C28.4086 12.3042 28.0938 12.6191 28.0938 13.0074V21.7856C28.0938 22.174 28.4086 22.4888 28.797 22.4888H30.0433C30.1693 22.4888 30.2873 22.4553 30.3896 22.3972C30.1766 22.2766 30.0326 22.0481 30.0326 21.7857Z" fill="#C3C8D1"/>
<path d="M48.9115 21.7857V13.0076C48.9115 12.7452 49.0556 12.5168 49.2685 12.3958C49.1662 12.3378 49.0482 12.3042 48.9222 12.3042H47.6759C47.2874 12.3042 46.9727 12.6191 46.9727 13.0074V21.7856C46.9727 22.174 47.2875 22.4888 47.6759 22.4888H48.9222C49.0482 22.4888 49.1662 22.4553 49.2685 22.3972C49.0556 22.2766 48.9115 22.0481 48.9115 21.7857Z" fill="#C3C8D1"/>
<path d="M39.7265 27.0852C39.7265 26.5733 40.0152 26.1293 40.4382 25.9055C40.2522 25.8072 40.0406 25.751 39.8156 25.751H38.7835C38.0466 25.751 37.4492 26.3484 37.4492 27.0852C37.4492 27.822 38.0465 28.4195 38.7835 28.4195H39.8156C40.0406 28.4195 40.2522 28.3632 40.4382 28.2649C40.0152 28.0411 39.7265 27.597 39.7265 27.0852Z" fill="#3C3F4D"/>
</svg>
