<svg width="60" height="60" viewBox="0 0 60 60" fill="none" xmlns="http://www.w3.org/2000/svg">
<g clip-path="url(#clip0)">
<path d="M13.8702 29.846L5.33249 35.6734C2.38724 35.6734 0 27.4583 0 24.5131C0 23.0396 0.596924 21.7065 1.56235 20.7416C2.52731 19.7766 3.85986 19.1797 5.33249 19.1797H40.0612C42.5601 19.1797 44.5844 21.2039 44.5844 23.7029V25.9711" fill="#7F8C8D"/>
<path d="M32.2628 3.10364V29.8462H5.80957V3.10364C5.80957 1.38931 7.19888 0 8.91412 0H29.1583C30.8726 0 32.2628 1.38931 32.2628 3.10364Z" fill="#3C3F4D"/>
<path d="M29.6756 6.99667V29.8464H8.39551V6.99667C8.39551 6.13242 9.0968 5.43066 9.96152 5.43066H28.11C28.9756 5.43066 29.6756 6.13242 29.6756 6.99667Z" fill="#FAFAFA"/>
<path d="M29.6757 6.99622V35.3414C29.6757 36.2066 28.9744 36.9074 28.1102 36.9074H25.8955C26.7602 36.9074 27.462 36.2066 27.462 35.3414V6.99622C27.462 6.13104 26.7602 5.43066 25.8955 5.43066H28.1102C28.9744 5.43066 29.6757 6.13104 29.6757 6.99622Z" fill="#95A5A5"/>
<path d="M49.5823 12.1914H23.6276C21.748 12.1914 20.2241 13.7148 20.2241 15.5949V30.1724C20.2241 32.0519 21.748 33.5758 23.6276 33.5758H49.5823C51.6185 33.5758 53.2696 31.9247 53.2696 29.8881V15.8787C53.2696 13.8421 51.6185 12.1914 49.5823 12.1914Z" fill="#008795"/>
<path d="M20.2241 17.0039H53.2696V21.4763H20.2241V17.0039Z" fill="#3C3F4D"/>
<path d="M15.3735 29.9707C15.3735 27.7616 17.1644 25.9707 19.3735 25.9707H56C58.2091 25.9707 60 27.7616 60 29.9707V47.6494C60 49.8586 58.2091 51.6494 56 51.6494H19.3735C17.1644 51.6494 15.3735 49.8586 15.3735 47.6494V29.9707Z" fill="#D0DD28"/>
<path d="M56.1384 43.0417V34.5791C53.5173 34.5791 51.3919 32.4537 51.3919 29.8325H23.9814C23.9814 32.4537 21.8565 34.5791 19.2354 34.5791V43.0417C21.8565 43.0417 23.9814 45.1667 23.9814 47.7878H51.3919C51.3919 45.1667 53.5168 43.0417 56.1384 43.0417Z" fill="#6B962A"/>
<path d="M56.1384 30.7513C55.3296 30.7513 54.9157 29.7305 55.5021 29.1688C55.7681 28.9143 56.1746 28.8429 56.511 28.9926C56.8759 29.1551 57.1016 29.5465 57.0503 29.9452C56.9922 30.3998 56.5989 30.7513 56.1384 30.7513Z" fill="#6B962A"/>
<path d="M56.1386 48.7076C55.3137 48.7076 54.9049 47.6478 55.5298 47.0994C55.8094 46.8545 56.2191 46.8005 56.5515 46.9671C56.9067 47.1457 57.1118 47.5467 57.0454 47.9399C56.9713 48.3766 56.5826 48.7076 56.1386 48.7076Z" fill="#6B962A"/>
<path d="M44.5844 34.3693V55.4763C44.5844 57.9753 42.5601 59.9995 40.0612 59.9995H5.33249C2.38724 59.9995 0 57.6122 0 54.6661V24.5132C0 27.4584 2.38724 29.8461 5.33249 29.8461H40.0612C42.5601 29.8461 44.5844 31.8717 44.5844 34.3693Z" fill="#95A5A5"/>
<path d="M5.80948 29.8461V59.9995H5.33249C2.38724 59.9995 0 57.6122 0 54.6661V24.5132C0 27.4584 2.38724 29.8461 5.33249 29.8461H5.80948Z" fill="#7F8C8D"/>
<path d="M39.4354 44.683C39.4354 46.3049 38.3308 47.6686 36.8326 48.0623C36.5479 48.1369 36.2489 48.1776 35.9409 48.1776C34.0109 48.1776 32.4463 46.613 32.4463 44.683C32.4463 42.7527 34.0109 41.1885 35.9409 41.1885C36.2489 41.1885 36.5479 41.2288 36.8326 41.3034C38.3308 41.6971 39.4354 43.0607 39.4354 44.683Z" fill="#FAFAFA"/>
</g>
<defs>
<clipPath id="clip0">
<rect width="60" height="60" fill="white"/>
</clipPath>
</defs>
</svg>
