<svg width="60" height="60" viewBox="0 0 60 60" fill="none" xmlns="http://www.w3.org/2000/svg">
<g clip-path="url(#clip0)">
<path d="M43.1914 43.4489L41.3811 36.2075H33.1052L31.2949 43.4489H26.8984V45.5178H47.5879V43.4489H43.1914Z" fill="#95A5A5"/>
<path d="M14.4844 32.0698C14.4844 34.3549 16.3371 36.2076 18.6223 36.2076H55.8635C58.1486 36.2076 60.0014 34.3549 60.0014 32.0698V28.9663H14.4844V32.0698Z" fill="#95A5A5"/>
<path d="M55.8635 0.000488281H18.6223C16.3371 0.000488281 14.4844 1.85322 14.4844 4.13836V28.9658H60.0015V4.13848C60.0014 1.85322 58.1486 0.000488281 55.8635 0.000488281Z" fill="#C4E2F2"/>
<path d="M55.8607 0.000488281H55.5161L26.5508 28.966H59.9985V4.13848C59.9985 1.85322 58.1458 0.000488281 55.8607 0.000488281Z" fill="#9ECBE2"/>
<path d="M19.6549 3.104H17.5859V5.17294H19.6549V3.104Z" fill="#008795"/>
<path d="M23.7916 3.104H21.7227V5.17294H23.7916V3.104Z" fill="#008795"/>
<path d="M27.9322 3.104H25.8633V5.17294H27.9322V3.104Z" fill="#008795"/>
<path d="M19.6549 7.24219H17.5859V21.7249H19.6549V7.24219Z" fill="#008795"/>
<path d="M56.8961 23.7939H17.5859V25.8629H56.8961V23.7939Z" fill="#008795"/>
<path d="M23.7916 18.6211H21.7227V21.7246H23.7916V18.6211Z" fill="#008795"/>
<path d="M27.9322 16.5527H25.8633V21.7251H27.9322V16.5527Z" fill="#008795"/>
<path d="M32.0689 17.5869H30V21.7248H32.0689V17.5869Z" fill="#008795"/>
<path d="M36.2057 14.4834H34.1367V21.7247H36.2057V14.4834Z" fill="#008795"/>
<path d="M40.3463 12.4141H38.2773V21.7243H40.3463V12.4141Z" fill="#008795"/>
<path d="M44.483 14.4834H42.4141V21.7247H44.483V14.4834Z" fill="#008795"/>
<path d="M48.6197 10.3452H46.5508V21.7244H48.6197V10.3452Z" fill="#008795"/>
<path d="M52.7564 8.27686H50.6875V21.7251H52.7564V8.27686Z" fill="#008795"/>
<path d="M56.8971 7.24219H54.8281V21.7249H56.8971V7.24219Z" fill="#008795"/>
<path d="M32.6382 56.2761L30.0003 52.7589V42.4141C29.9993 36.4824 26.1128 31.252 20.4334 29.54L23.7934 23.0797L22.7589 22.4156C21.4689 21.5953 19.8468 21.498 18.4678 22.1591C17.2575 22.7374 15.8506 22.7374 14.6403 22.1591C13.2603 21.497 11.6362 21.5942 10.3451 22.4156L9.31059 23.0797L12.6706 29.54C6.99134 31.2521 3.10471 36.4824 3.10366 42.4141V52.7589L0.46578 56.2761C-0.305897 57.3044 -0.0969525 58.7631 0.931247 59.5347C1.33472 59.8368 1.82398 60.0002 2.32776 60.0002H30.776C32.0619 60.0002 33.1035 58.9585 33.1035 57.6726C33.1037 57.1689 32.9402 56.6796 32.6382 56.2761Z" fill="#D0DD28"/>
<path opacity="0.3" d="M29.9982 52.7589V42.4141C30.0003 39.6572 29.149 36.9676 27.561 34.7134C20.1304 47.1179 8.96934 55.1486 1.07422 59.6299C1.44769 59.871 1.88211 59.9992 2.32589 60.0002H30.7741C32.06 60.0002 33.1017 58.9586 33.1017 57.6727C33.1017 57.1689 32.9382 56.6786 32.6362 56.2761L29.9982 52.7589Z" fill="#6B962A"/>
<path d="M20.6899 43.4485V42.263C20.6878 40.6327 19.3678 39.3127 17.7375 39.3106H17.5865V37.2417H15.5175V39.3106H15.3665C13.7362 39.3106 12.4141 40.6327 12.4141 42.263C12.4141 43.3814 13.0462 44.4044 14.0465 44.9041L18.1316 46.9471C18.5681 47.1654 18.7451 47.6961 18.5268 48.1326C18.3778 48.4315 18.0727 48.6209 17.7375 48.6209H15.3665C14.8792 48.6199 14.4841 48.2247 14.483 47.7374V47.5864H12.4141V47.7374C12.4162 49.3677 13.7362 50.6877 15.3665 50.6899H15.5175V52.7588H17.5865V50.6899H17.7375C19.3678 50.6899 20.6899 49.3688 20.6899 47.7374C20.6899 46.6191 20.0578 45.5961 19.0575 45.0964L14.9724 43.0534C14.5359 42.835 14.3589 42.3044 14.5772 41.8679C14.7262 41.5689 15.0324 41.3796 15.3665 41.3796H17.7375C18.2248 41.3806 18.6199 41.7758 18.621 42.263V43.4485H20.6899Z" fill="#008795"/>
<path d="M38.7926 55.8625C40.7923 55.8625 42.4133 54.2415 42.4133 52.2418C42.4133 50.2421 40.7923 48.6211 38.7926 48.6211C36.7929 48.6211 35.1719 50.2421 35.1719 52.2418C35.1719 54.2415 36.7929 55.8625 38.7926 55.8625Z" fill="#008795"/>
<path d="M49.1364 60.0002C51.136 60.0002 52.7571 58.3792 52.7571 56.3795C52.7571 54.3798 51.136 52.7588 49.1364 52.7588C47.1367 52.7588 45.5156 54.3798 45.5156 56.3795C45.5156 58.3792 47.1367 60.0002 49.1364 60.0002Z" fill="#008795"/>
<path d="M41.8963 38.2765L41.3791 36.2075H33.1032L32.5859 38.2765H41.8963Z" fill="#7F8C8D"/>
</g>
<defs>
<clipPath id="clip0">
<rect y="0.000488281" width="60" height="60" fill="white"/>
</clipPath>
</defs>
</svg>
