<svg width="72" height="72" viewBox="0 0 72 72" fill="none" xmlns="http://www.w3.org/2000/svg">
<g clip-path="url(#clip0)">
<path d="M20.0234 53.0381V72H35.6487V45.2065L20.0234 53.0381Z" fill="#008795"/>
<path d="M35.6523 45.2071V72.0005H51.2771V37.3755L35.6523 45.2071Z" fill="#9ECBE2"/>
<path d="M51.2734 72.0006H66.8987V29.5439L51.2734 37.3755V72.0006Z" fill="#C4E2F2"/>
<path d="M71.7533 28.9268C71.761 28.8889 71.7687 28.8505 71.7742 28.812C71.7808 28.7653 71.7851 28.7181 71.7895 28.6709C71.7934 28.6302 71.7978 28.5896 71.7994 28.5489C71.8016 28.5039 71.8011 28.4588 71.8011 28.4132C71.8005 28.3825 71.8033 28.3512 71.8016 28.3199C71.8011 28.3089 71.7994 28.2979 71.7989 28.2869C71.7967 28.2429 71.7917 28.199 71.7873 28.1551C71.783 28.1122 71.7791 28.0699 71.7725 28.0276C71.7659 27.9848 71.7571 27.9419 71.7483 27.8996C71.7396 27.8568 71.7313 27.8134 71.7209 27.7711C71.7104 27.7304 71.6978 27.6903 71.6857 27.6502C71.672 27.6057 71.6583 27.5618 71.6429 27.5184C71.6291 27.481 71.6138 27.4442 71.5984 27.4074C71.5929 27.3937 71.5879 27.38 71.5819 27.3668C71.5753 27.3509 71.5698 27.3344 71.5627 27.319C71.5605 27.3141 71.5583 27.3097 71.5555 27.3047C71.5506 27.2937 71.544 27.2833 71.5385 27.2723C71.5319 27.258 71.527 27.2437 71.5198 27.2295C71.5088 27.2075 71.4957 27.1877 71.4841 27.1663C71.4611 27.1234 71.438 27.0817 71.4133 27.0405C71.3907 27.0042 71.3677 26.9685 71.344 26.9334C71.3199 26.8971 71.2946 26.862 71.2688 26.8268C71.2413 26.7906 71.2133 26.7554 71.1847 26.7208C71.1584 26.6884 71.1309 26.6576 71.1034 26.6269C71.0727 26.5934 71.0419 26.5609 71.0101 26.5291C70.9799 26.4994 70.9485 26.4703 70.9167 26.4417C70.8848 26.4132 70.8524 26.3852 70.8195 26.3582C70.7843 26.3297 70.7486 26.3022 70.7112 26.2753C70.6794 26.2517 70.647 26.2286 70.614 26.2066C70.5745 26.1797 70.5338 26.1544 70.4926 26.1303C70.4591 26.1105 70.4256 26.0913 70.3915 26.0731C70.3498 26.0506 70.3069 26.0298 70.2635 26.0094C70.2262 25.9918 70.1888 25.9754 70.1509 25.96C70.1097 25.943 70.0674 25.9265 70.0251 25.9116C69.9817 25.8963 69.9384 25.8825 69.895 25.8694C69.8702 25.8622 69.8466 25.8529 69.8213 25.8457H69.8208L59.5755 23.1008C58.1489 22.7179 56.6833 23.565 56.3016 24.9915C55.9192 26.4176 56.7652 27.8837 58.1918 28.2655L61.6431 29.1905L16.6014 51.7652C15.2814 52.4271 14.7474 54.0333 15.4088 55.3533C15.8779 56.2888 16.8216 56.8294 17.8011 56.8294C18.2037 56.8294 18.6124 56.7382 18.9969 56.5454L65.0071 33.484L63.8025 37.9801C63.4202 39.4067 64.2661 40.8728 65.6927 41.2546C65.9245 41.3167 66.1574 41.3469 66.3859 41.3469C67.5664 41.3469 68.6469 40.5586 68.9672 39.3644L71.7121 29.1186C71.7159 29.1037 71.7181 29.0889 71.722 29.0741C71.7346 29.0252 71.7445 28.9763 71.7533 28.9268Z" fill="#D0DD28"/>
<path d="M31.7637 58.2944L25.8788 56.3608H10.0712L4.17096 58.2961C1.8501 59.0569 0.28125 61.2228 0.28125 63.6651V72.001H35.6506V63.6629C35.6506 61.2217 34.0829 59.0563 31.7637 58.2944Z" fill="#C4E2F2"/>
<path d="M12.3086 53.8345H23.6245V58.6223H12.3086V53.8345Z" fill="#9ECBE2"/>
<path d="M19.9246 63.4099H16.0068L15.1367 58.6226H20.7947L19.9246 63.4099Z" fill="#008795"/>
<path d="M8.39062 56.881L14.0491 62.9745L17.9663 58.6223L12.3083 53.8345L8.39062 56.881Z" fill="#9ECBE2"/>
<path d="M20.9759 72.0004L19.9256 63.4097H16.0079L14.957 72.0004H20.9759Z" fill="#008795"/>
<path d="M24.3917 30.6835C24.1187 29.6278 22.9536 28.132 18.5404 28.132C11.7211 28.132 10.7505 29.1416 8.93556 27.3975C7.40407 25.9265 6.50539 33.0077 8.54665 35.2566C7.68477 38.4421 8.37416 41.632 8.37416 41.632H27.5596C27.5596 41.632 29.1696 34.1799 24.3917 30.6835Z" fill="#3C3F4D"/>
<path d="M8.93574 29.1482C10.7501 30.8923 11.7213 29.8821 18.5405 29.8821C22.9537 29.8821 24.1188 31.3779 24.3919 32.4336C26.927 34.2887 27.6636 37.2577 27.7965 39.6363C27.9295 37.177 27.6054 33.0351 24.3919 30.6835C24.1188 29.6283 22.9537 28.1319 18.5405 28.1319C11.7213 28.1319 10.7507 29.1416 8.93574 27.3981C7.92719 26.4291 7.19276 29.1701 7.39216 31.797C7.53828 29.8727 8.15461 28.3973 8.93574 29.1482Z" fill="#3C3F4D"/>
<path d="M22.3179 49.0483H13.6211V54.9425L17.9695 58.6224L22.3217 54.9398L22.3179 49.0483Z" fill="#FDD7AD"/>
<path d="M10.3124 41.9677C10.3124 41.9677 9.48516 40.4521 7.83117 40.4521C6.17718 40.4521 5.00493 47.7251 10.3124 46.5128V41.9677Z" fill="#FDD7AD"/>
<path d="M25.6211 41.9677C25.6211 41.9677 26.4478 40.4521 28.1024 40.4521C29.7563 40.4521 30.928 47.7251 25.6211 46.5128V41.9677Z" fill="#FDD7AD"/>
<path d="M17.9679 32.2217C5.29458 32.2217 7.71761 53.0067 17.9679 53.0067C28.2181 53.0067 30.6411 32.2217 17.9679 32.2217Z" fill="#FDD7AD"/>
<path d="M17.8766 31.072C17.8766 31.072 9.29688 29.8619 9.29688 40.8702C9.29688 40.8702 10.3774 36.3202 12.8553 35.0793C14.01 34.5014 14.4324 35.9653 17.8766 35.9653C21.3209 35.9653 21.7433 34.5014 22.898 35.0793C25.3765 36.3202 26.4564 40.8702 26.4564 40.8702C26.4564 29.8619 17.8766 31.072 17.8766 31.072Z" fill="#333399"/>
<path d="M17.9675 31.0908C17.9675 31.0908 9.34766 29.8746 9.34766 40.9351C9.34766 40.9351 10.4331 36.3631 12.9232 35.1167C14.0828 34.5361 14.5074 36.0072 17.9681 36.0072C21.4282 36.0072 21.8528 34.5361 23.0125 35.1167C25.5031 36.3631 26.588 40.9351 26.588 40.9351C26.5874 29.8746 17.9675 31.0908 17.9675 31.0908Z" fill="#3C3F4D"/>
<path d="M27.5405 56.881L21.882 62.9745L17.9648 58.6223L23.6228 53.8345L27.5405 56.881Z" fill="#9ECBE2"/>
<path d="M48.5101 0.000488281H24.0502C21.4074 0.000488281 19.2656 2.14282 19.2656 4.78503V18.8195C19.2656 21.4617 21.4074 23.6041 24.0502 23.6041H27.679V28.6484C27.679 29.4444 28.6414 29.8427 29.2039 29.2802L34.8799 23.6041H48.5101C51.1523 23.6041 53.2947 21.4617 53.2947 18.8195V4.78503C53.2947 2.14282 51.1529 0.000488281 48.5101 0.000488281Z" fill="#C4E2F2"/>
<path d="M35.5816 18.3851C34.7044 18.2565 33.9238 17.9171 33.2394 17.3672C32.84 17.0464 32.5077 16.6443 32.2423 16.1603C31.9199 15.5731 32.1715 14.8354 32.7917 14.5822C33.2844 14.3806 33.8617 14.5514 34.1369 15.0073C34.2254 15.154 34.327 15.2941 34.4418 15.4276C34.7571 15.7961 35.1367 16.051 35.5816 16.1906V12.8573L35.4245 12.7864C34.9922 12.6233 34.5852 12.4305 34.205 12.2075C33.8249 11.9861 33.4909 11.7279 33.2053 11.4357C32.9169 11.1434 32.6889 10.8127 32.5203 10.4442C32.35 10.0756 32.2649 9.66303 32.2649 9.20654C32.2649 8.78577 32.3412 8.38806 32.4928 8.01343C32.6461 7.63934 32.8642 7.30536 33.1526 7.01367C33.4388 6.72144 33.7859 6.47754 34.1968 6.28528C34.6055 6.09192 35.0669 5.96668 35.5816 5.9079V5.1795C35.5816 4.74829 35.931 4.39893 36.3622 4.39893C36.794 4.39893 37.1433 4.74829 37.1433 5.1795V5.94305C37.6119 6.01282 38.019 6.13586 38.3634 6.31165C38.7094 6.48688 39.0044 6.69177 39.2593 6.91699C39.3571 7.00378 39.4521 7.10706 39.5411 7.21857C39.9844 7.77393 39.7592 8.60339 39.111 8.89233C38.6666 9.09064 38.1546 8.96649 37.8272 8.60614C37.6559 8.41718 37.4301 8.23151 37.1433 8.10077V11.2423C37.6476 11.4532 38.1024 11.6697 38.5133 11.8922C38.922 12.1141 39.273 12.3657 39.5658 12.6469C39.8592 12.9271 40.0805 13.2462 40.2321 13.6022C40.3854 13.9603 40.4601 14.3723 40.4601 14.8398C40.4601 15.3666 40.37 15.8346 40.1893 16.2438C40.0069 16.6536 39.7652 17.0041 39.4604 17.2963C39.1555 17.5891 38.8028 17.8237 38.3991 17.9989C37.9959 18.1741 37.5768 18.2972 37.1439 18.3669V19.1299C37.1439 19.5612 36.794 19.9111 36.3628 19.9111C35.9315 19.9111 35.5816 19.5612 35.5816 19.1299V18.3851ZM34.4248 9.20654C34.4248 9.48724 34.5154 9.73004 34.6956 9.93439C34.878 10.1398 35.1729 10.3475 35.5816 10.5579V7.99585C35.2306 8.08978 34.9516 8.24139 34.7401 8.45178C34.5286 8.66327 34.4248 8.91431 34.4248 9.20654ZM38.2151 14.8579C38.2151 14.5536 38.1332 14.3015 37.9679 14.1032C37.8047 13.9037 37.5301 13.7054 37.1433 13.506V16.1911C37.4603 16.0862 37.7174 15.9192 37.9168 15.6907C38.1145 15.4627 38.2151 15.1848 38.2151 14.8579Z" fill="#008795"/>
</g>
<defs>
<clipPath id="clip0">
<rect y="0.000488281" width="72" height="72" fill="white"/>
</clipPath>
</defs>
</svg>
