<svg width="16" height="16" viewBox="0 0 16 16" fill="none" xmlns="http://www.w3.org/2000/svg">
<path fill-rule="evenodd" clip-rule="evenodd" d="M12.5312 7.26602C12.5312 10.1745 10.1736 12.532 7.26562 12.532C4.3576 12.532 2 10.1745 2 7.26602C2 4.35757 4.3576 2 7.26562 2C10.1736 2 12.5312 4.35757 12.5312 7.26602ZM11.6176 13.0849C10.4046 13.9937 8.89796 14.532 7.26562 14.532C3.25293 14.532 0 11.2789 0 7.26602C0 3.25311 3.25293 0 7.26562 0C11.2783 0 14.5312 3.25311 14.5312 7.26602C14.5312 8.89777 13.9934 10.4039 13.0853 11.6167L15.6964 14.228C16.1018 14.6334 16.1018 15.2906 15.6964 15.696C15.2911 16.1013 14.6339 16.1013 14.2286 15.696L11.6176 13.0849Z" fill="#666666"/>
</svg>
