<svg width="60" height="60" viewBox="0 0 60 60" fill="none" xmlns="http://www.w3.org/2000/svg">
<path d="M41.25 10.3125V52.5H7.75C5.54086 52.5 3.75 50.7091 3.75 48.5V6.8125C3.75 4.60336 5.54086 2.8125 7.75 2.8125H34.6875V10.3125H41.25Z" fill="#C4E2F2"/>
<path d="M54.375 34.6875H20.625C19.5895 34.6875 18.75 35.527 18.75 36.5625V55.3125C18.75 56.348 19.5895 57.1875 20.625 57.1875H54.375C55.4105 57.1875 56.25 56.348 56.25 55.3125V36.5625C56.25 35.527 55.4105 34.6875 54.375 34.6875Z" fill="#008795"/>
<path d="M34.6875 2.8125L41.25 10.3125H34.6875V2.8125Z" fill="#9ECBE2"/>
<path d="M18.75 39.375H56.25V43.125H18.75V39.375Z" fill="#3C3F4D"/>
<path d="M16.875 22.5C21.0171 22.5 24.375 19.1421 24.375 15C24.375 10.8579 21.0171 7.5 16.875 7.5C12.7329 7.5 9.375 10.8579 9.375 15C9.375 19.1421 12.7329 22.5 16.875 22.5Z" fill="#6B962A"/>
<path d="M28.125 14.0625H31.875V15.9375H28.125V14.0625Z" fill="#008795"/>
<path d="M33.75 14.0625H37.5V15.9375H33.75V14.0625Z" fill="#008795"/>
<path d="M28.125 17.8125H37.5V19.6875H28.125V17.8125Z" fill="#008795"/>
<path d="M7.5 25.3125H9.375V27.1875H7.5V25.3125Z" fill="#008795"/>
<path d="M11.25 25.3125H16.875V27.1875H11.25V25.3125Z" fill="#008795"/>
<path d="M7.5 30H16.875V31.875H7.5V30Z" fill="#008795"/>
<path d="M49.6875 53.4375C50.723 53.4375 51.5625 52.598 51.5625 51.5625C51.5625 50.527 50.723 49.6875 49.6875 49.6875C48.652 49.6875 47.8125 50.527 47.8125 51.5625C47.8125 52.598 48.652 53.4375 49.6875 53.4375Z" fill="#FFDA44"/>
<path d="M46.875 53.4375C47.9105 53.4375 48.75 52.598 48.75 51.5625C48.75 50.527 47.9105 49.6875 46.875 49.6875C45.8395 49.6875 45 50.527 45 51.5625C45 52.598 45.8395 53.4375 46.875 53.4375Z" fill="#FF5023"/>
<path d="M35.625 10.3125H41.25V11.25H35.625V10.3125Z" fill="#008795"/>
<path d="M15.9375 21.5625C20.0796 21.5625 23.4375 18.2046 23.4375 14.0625C23.4375 9.92036 20.0796 6.5625 15.9375 6.5625C11.7954 6.5625 8.4375 9.92036 8.4375 14.0625C8.4375 18.2046 11.7954 21.5625 15.9375 21.5625Z" fill="#D0DD28"/>
<path d="M19.6875 15.9375C19.6853 16.6827 19.3882 17.3968 18.8613 17.9238C18.3343 18.4507 17.6202 18.7478 16.875 18.75V19.6875H15V18.75C14.2548 18.7478 13.5407 18.4507 13.0137 17.9238C12.4868 17.3968 12.1897 16.6827 12.1875 15.9375H14.0625C14.0625 16.1861 14.1613 16.4246 14.3371 16.6004C14.5129 16.7762 14.7514 16.875 15 16.875H16.875C17.1236 16.875 17.3621 16.7762 17.5379 16.6004C17.7137 16.4246 17.8125 16.1861 17.8125 15.9375C17.8125 15.6889 17.7137 15.4504 17.5379 15.2746C17.3621 15.0988 17.1236 15 16.875 15H15C14.2541 15 13.5387 14.7037 13.0113 14.1762C12.4838 13.6488 12.1875 12.9334 12.1875 12.1875C12.1875 11.4416 12.4838 10.7262 13.0113 10.1988C13.5387 9.67132 14.2541 9.375 15 9.375V8.4375H16.875V9.375C17.6202 9.37723 18.3343 9.67426 18.8613 10.2012C19.3882 10.7282 19.6853 11.4423 19.6875 12.1875H17.8125C17.8125 11.9389 17.7137 11.7004 17.5379 11.5246C17.3621 11.3488 17.1236 11.25 16.875 11.25H15C14.7514 11.25 14.5129 11.3488 14.3371 11.5246C14.1613 11.7004 14.0625 11.9389 14.0625 12.1875C14.0625 12.4361 14.1613 12.6746 14.3371 12.8504C14.5129 13.0262 14.7514 13.125 15 13.125H16.875C17.6202 13.1272 18.3343 13.4243 18.8613 13.9512C19.3882 14.4782 19.6853 15.1923 19.6875 15.9375Z" fill="#008795"/>
</svg>
