<svg width="73" height="72" viewBox="0 0 73 72" fill="none" xmlns="http://www.w3.org/2000/svg">
<g clip-path="url(#clip0)">
<path d="M39.4225 0.256817L62.4417 5.19094C64.4276 5.61661 65.8464 7.37175 65.8464 9.4028V37.0829C65.8464 55.0955 49.7833 66.5632 39.3478 71.4747C37.8589 72.1754 36.1389 72.1754 34.65 71.4747C24.2144 66.5632 8.15137 55.0955 8.15137 37.0829V9.4028C8.15137 7.37175 9.56999 5.61661 11.556 5.19094L34.5757 0.256817C36.1731 -0.0856056 37.8248 -0.0856056 39.4225 0.256817Z" fill="#6B962A"/>
<path opacity="0.15" d="M56.2068 10.8373L39.3297 7.21973C38.5614 7.05506 37.78 6.97266 36.9987 6.97266C36.2172 6.97266 35.4359 7.05492 34.6677 7.21973L17.7905 10.8373C16.1506 11.1889 14.979 12.6382 14.979 14.3154V16.4853C14.979 14.808 16.1506 13.3587 17.7905 13.0072L34.6675 9.38972C35.4358 9.22505 36.2172 9.14264 36.9985 9.14264C37.7798 9.14264 38.5613 9.22491 39.3295 9.38972L56.2068 13.0072C57.8468 13.3587 59.0183 14.808 59.0183 16.4853V14.3154C59.0182 12.6382 57.8468 11.1887 56.2068 10.8373Z" fill="#145587"/>
<path d="M56.2068 10.8377L39.3297 7.22022C38.5614 7.05541 37.78 6.97314 36.9987 6.97314C36.2172 6.97314 35.4359 7.05541 34.6677 7.22022L17.7905 10.8377C16.1506 11.1892 14.979 12.6385 14.979 14.3158V37.0831C14.979 43.7465 17.8725 50.0007 23.5792 55.672C27.5541 59.6223 31.9758 62.4107 35.3431 64.1906C35.861 64.4644 36.4298 64.6013 36.9987 64.6013C37.5675 64.6013 38.1362 64.4643 38.6543 64.1906C42.0217 62.4107 46.4431 59.6224 50.4181 55.672C56.1247 50.0005 59.0183 43.7465 59.0183 37.0831V14.3156C59.0182 12.6385 57.8468 11.1891 56.2068 10.8377Z" fill="#D0DD28"/>
<path d="M46.385 31.2985H41.8535V25.863C41.8535 23.1859 39.6755 21.0079 36.9984 21.0079C34.3213 21.0079 32.1433 23.1859 32.1433 25.863V31.2985H27.6118V25.863C27.6118 20.6873 31.8226 16.4766 36.9983 16.4766C42.174 16.4766 46.3847 20.6873 46.3847 25.863V31.2985H46.385Z" fill="#008795"/>
<path d="M47.3357 28.5972H26.6621C25.9358 28.5972 25.3467 29.1861 25.3467 29.9126V45.2351C25.3467 45.9614 25.9355 46.5505 26.6621 46.5505H47.3357C48.062 46.5505 48.6511 45.9617 48.6511 45.2351V29.9126C48.651 29.1862 48.062 28.5972 47.3357 28.5972Z" fill="#008795"/>
<path d="M39.8331 34.4976C39.8331 32.9048 38.5197 31.619 36.9167 31.6642C35.4583 31.7054 34.2513 32.8759 34.1688 34.3328C34.1164 35.255 34.5055 36.0876 35.1438 36.6404C35.2841 36.7619 35.3556 36.9442 35.3337 37.1282L34.8903 40.846C34.8391 41.275 35.1742 41.6524 35.6064 41.6524H38.3905C38.8226 41.6524 39.1577 41.275 39.1065 40.846L38.6631 37.1282C38.6412 36.9439 38.7132 36.7615 38.8536 36.6399C39.4535 36.1202 39.8331 35.3534 39.8331 34.4976Z" fill="#95A5A5"/>
<path d="M36.9166 31.6642C35.4582 31.7054 34.2512 32.8759 34.1687 34.3327C34.155 34.5722 34.1719 34.8054 34.2145 35.0295C34.4599 33.7476 35.5828 32.7649 36.9166 32.7274C38.3364 32.6873 39.5285 33.6918 39.7823 35.0287C39.8149 34.8567 39.8331 34.6794 39.8331 34.4978C39.8332 32.9048 38.5195 31.6191 36.9166 31.6642Z" fill="#7F8C8D"/>
</g>
<defs>
<clipPath id="clip0">
<rect x="0.998535" width="72" height="72" fill="white"/>
</clipPath>
</defs>
</svg>
