<svg width="60" height="60" viewBox="0 0 60 60" fill="none" xmlns="http://www.w3.org/2000/svg">
<path d="M58.9741 31.5005C58.986 31.1674 59.0001 30.8354 59.0001 30.5005C59.0001 14.4845 46.0161 1.50049 30 1.50049C13.984 1.50049 1 14.4845 1 30.5005C1 30.8356 1.01395 31.1676 1.02602 31.5005H58.9741Z" fill="#C4E2F2"/>
<path d="M59.0001 30.5005C59.0001 14.4845 46.0161 1.50049 30 1.50049C29.3281 1.50049 28.663 1.53154 28 1.57654C33.351 6.18154 40.7621 15.2585 43.71 31.5005H58.9741C58.986 31.1674 59.0001 30.8354 59.0001 30.5005Z" fill="#9ECBE2"/>
<path d="M30 23.4995C32.2089 23.4995 33.9999 25.2905 33.9999 27.4995V29.4995C33.9999 31.7085 32.2089 33.4995 30 33.4995C27.791 33.4995 26 31.7085 26 29.4995V27.4995C26 25.2906 27.791 23.4995 30 23.4995Z" fill="#FEC9A3"/>
<path d="M34 45.5H26V59.5H34V45.5Z" fill="#D0DD28"/>
<path d="M31 48.5H29V59.5H31V48.5Z" fill="#6B962A"/>
<path d="M51 33.5C48.791 33.5 47 31.709 47 29.5V27.5C47 25.291 48.791 23.5 51 23.5C53.2089 23.5 54.9999 25.291 54.9999 27.5V29.5C54.9999 31.7089 53.2089 33.5 51 33.5Z" fill="#FEC9A3"/>
<path d="M55 45.5H47V59.5H55V45.5Z" fill="#D0DD28"/>
<path d="M52 48.5H50V59.5H52V48.5Z" fill="#6B962A"/>
<path d="M42 45.5L37.249 35.525C36.5109 34.283 35.179 33.5161 33.735 33.5H26.141C24.804 33.5 23.555 34.168 22.813 35.281L18 45.5H22L26 37.5V45.5H34.0001V37.5L38 45.5H42Z" fill="#C4E2F2"/>
<path d="M47 33.509C47.088 33.503 47.176 33.5 47.265 33.5H54.9999C57.2089 33.5 58.9999 35.291 58.9999 37.5V45.5H46.9999V37.5001L42 45.5001H38L43.813 35.2811C44.555 34.1681 45.804 33.5001 47.141 33.5001L47 33.509Z" fill="#C4E2F2"/>
<path d="M56 37.5H54V45.5H56V37.5Z" fill="#9ECBE2"/>
<path d="M8.99996 23.4995C11.2089 23.4995 12.9999 25.2905 12.9999 27.4995V29.4995C12.9999 31.7085 11.2089 33.4995 8.99996 33.4995C6.79098 33.4995 5 31.7085 5 29.4995V27.4995C5 25.2906 6.79098 23.4995 8.99996 23.4995Z" fill="#FEC9A3"/>
<path d="M8.99996 23.4995C8.66199 23.5035 8.32602 23.5515 8 23.6405C9.76297 24.0925 10.997 25.6794 11 27.4995V29.4995C10.996 31.3196 9.76297 32.9065 8 33.3585C10.105 33.9365 12.281 32.6996 12.8589 30.5945C12.9569 30.2376 13.0039 29.8695 12.9999 29.4995V27.4995C12.9999 25.2906 11.2089 23.4995 8.99996 23.4995Z" fill="#FABD91"/>
<path d="M30 23.4995C29.662 23.5035 29.326 23.5515 29 23.6405C30.763 24.0925 31.997 25.6794 32 27.4995V29.4995C31.996 31.3196 30.763 32.9065 29 33.3585C31.105 33.9365 33.281 32.6996 33.8589 30.5945C33.9569 30.2376 34.0039 29.8695 33.9999 29.4995V27.4995C33.9999 25.2906 32.2089 23.4995 30 23.4995Z" fill="#FABD91"/>
<path d="M51 23.4995C50.662 23.5035 50.326 23.5515 50 23.6405C51.763 24.0925 52.997 25.6794 53 27.4995V29.4995C52.996 31.3196 51.763 32.9065 50 33.3585C52.105 33.9365 54.281 32.6996 54.8589 30.5945C54.9569 30.2376 55.0039 29.8695 54.9999 29.4995V27.4995C54.9999 25.2906 53.2089 23.4995 51 23.4995Z" fill="#FABD91"/>
<path d="M13 45.5H5V59.5H13V45.5Z" fill="#D0DD28"/>
<path d="M10 48.5H8V59.5H10V48.5Z" fill="#6B962A"/>
<path d="M12.9999 33.509C12.9119 33.5 12.8239 33.5 12.7349 33.5H4.99996C2.79098 33.5 1 35.291 1 37.5V45.5H13V37.5001L18 45.5001H22L16.187 35.2811C15.445 34.1681 14.196 33.5001 12.859 33.5001L12.9999 33.509Z" fill="#C4E2F2"/>
<path d="M6.00004 37.5H4V45.5H6.00004V37.5Z" fill="#9ECBE2"/>
<path d="M18 27.5H16V29.5H18V27.5Z" fill="#008795"/>
<path d="M22 27.5H20V29.5H22V27.5Z" fill="#008795"/>
<path d="M40 27.5H38V29.5H40V27.5Z" fill="#008795"/>
<path d="M44 27.5H42V29.5H44V27.5Z" fill="#008795"/>
<path d="M30 0.5C13.4389 0.518984 0.0189844 13.9389 0 30.5V31.5H2.00004V30.5C1.99605 26.348 2.92102 22.248 4.70707 18.5H13.865C13.5441 19.769 13.265 21.0489 13.065 22.346L15.041 22.6539C15.264 21.255 15.56 19.8679 15.9291 18.5H29V20.5H31.0001V18.5H44.1191C44.4901 19.868 44.7881 21.254 45.0121 22.653L46.9881 22.347C46.788 21.0471 46.503 19.7701 46.188 18.5H55.2981C57.082 22.248 58.0051 26.349 58.0001 30.5V31.5H60V30.5C59.981 13.9389 46.5611 0.518984 30 0.5ZM23.232 3.82191L23.704 3.22191C25.444 2.81996 27.219 2.58488 29.004 2.52195V7.49996H20.679C21.462 6.22801 22.314 5 23.232 3.82191ZM18.341 7.49996H14.058C16.0511 6.11199 18.217 4.98898 20.5001 4.16094C19.731 5.24293 19.007 6.35398 18.341 7.49996ZM31 2.525C32.803 2.58805 34.5969 2.82699 36.3539 3.23598L36.8149 3.82203C37.7339 5 38.586 6.22801 39.3689 7.50008H31V2.525ZM39.561 4.18297C41.822 5.00902 43.967 6.12395 45.942 7.49996H41.707C41.045 6.36195 40.33 5.25594 39.561 4.18297ZM5.76703 16.5C7.29105 13.8719 9.23004 11.5089 11.509 9.5H17.2359C16.0909 11.746 15.147 14.088 14.4149 16.5H5.76703ZM16.518 16.5C17.297 14.0779 18.302 11.735 19.518 9.5H29V16.5H16.518ZM31 16.5V9.5H40.5289C41.7459 11.7339 42.75 14.078 43.5289 16.5H31ZM45.633 16.5C44.9 14.088 43.9561 11.746 42.812 9.5H48.491C50.77 11.5089 52.7091 13.872 54.233 16.5H45.633Z" fill="#008795"/>
<path d="M31 33.5H29V42.5H31V33.5Z" fill="#008795"/>
<path d="M52 33.5H50V42.5H52V33.5Z" fill="#008795"/>
<path d="M10 33.5H8V42.5H10V33.5Z" fill="#008795"/>
<path d="M29.9986 0.500001C26.6726 0.498947 23.3696 1.055 20.2266 2.14297C20.9686 2.93094 21.7475 3.80492 22.5456 4.75297C22.7736 4.44301 22.9925 4.12602 23.2305 3.82192L23.7026 3.22192C25.4426 2.81996 27.2176 2.58488 29.0026 2.52196V7.49996H24.7356C25.2186 8.13993 25.7055 8.79992 26.1946 9.5H28.9985V13.839C29.8696 15.295 30.7335 16.839 31.5755 18.5H44.1175C44.4885 19.8681 44.7865 21.254 45.0104 22.653L46.9864 22.347C46.7864 21.0471 46.5014 19.7701 46.1864 18.5H55.2964C57.0804 22.248 58.0035 26.349 57.9984 30.5V31.5H59.9986V30.5C59.9796 13.9389 46.5596 0.518986 29.9986 0.500001ZM45.9405 7.49996H41.7056C41.0436 6.36196 40.3287 5.25594 39.5596 4.18297C41.8206 5.00891 43.9656 6.12395 45.9405 7.49996ZM30.9986 2.525C32.8016 2.58805 34.5955 2.82699 36.3525 3.23598L36.8135 3.82203C37.7325 5 38.5846 6.22801 39.3675 7.50008H30.9986V2.525ZM30.9986 16.5V9.5H40.5275C41.7445 11.7339 42.7486 14.0781 43.5275 16.5H30.9986ZM45.6316 16.5C44.8986 14.088 43.9547 11.746 42.8106 9.5H48.4896C50.7686 11.5089 52.7077 13.872 54.2316 16.5H45.6316Z" fill="#008795"/>
</svg>
