<svg width="73" height="72" viewBox="0 0 73 72" fill="none" xmlns="http://www.w3.org/2000/svg">
<path d="M68.6509 20.5457L55.6562 7.52637V59.6989H73.0469V31.1168C73.0469 27.1481 71.4643 23.3435 68.6509 20.5457Z" fill="#FDD7AD"/>
<path d="M11.1556 50.1931L1.33184 24.6906C0.345853 22.1306 1.62136 19.2549 4.18283 18.2684L50.5507 0.40801C53.1108 -0.577975 55.9865 0.69753 56.9725 3.259L66.7962 28.7615C67.7822 31.3215 66.5067 34.1972 63.9452 35.1837L17.5787 53.0441C15.0173 54.0301 12.143 52.7532 11.1556 50.1931Z" fill="#D0DD28"/>
<path d="M60.5129 12.4453L4.91699 33.9953L8.61895 43.6051L64.2173 22.0651L60.5129 12.4453Z" fill="#6B962A"/>
<path d="M0.999512 32.3707V5.04215C0.999512 2.29813 3.2244 0.0732422 5.96842 0.0732422H55.6565C58.4006 0.0732422 60.6254 2.29813 60.6254 5.04215V32.3707C60.6254 35.1147 58.4006 37.3396 55.6565 37.3396H5.96842C3.2244 37.3396 0.999512 35.1147 0.999512 32.3707Z" fill="#008795"/>
<path d="M5.96777 19.9482H10.9367V22.4327H5.96777V19.9482Z" fill="white"/>
<path d="M5.96777 27.4019H10.9367V29.8863H5.96777V27.4019Z" fill="white"/>
<path d="M28.3276 27.4019H33.2965V29.8863H28.3276V27.4019Z" fill="white"/>
<path d="M13.4214 19.9482H18.3898V22.4327H13.4214V19.9482Z" fill="white"/>
<path d="M20.874 19.9482H25.8429V22.4327H20.874V19.9482Z" fill="white"/>
<path d="M28.3276 19.9482H33.2965V22.4327H28.3276V19.9482Z" fill="white"/>
<path d="M51.9297 5.04199H54.4141V8.76867H51.9297V5.04199Z" fill="white"/>
<path d="M46.9604 5.04199H49.4449V8.76867H46.9604V5.04199Z" fill="white"/>
<path d="M41.9917 5.04199H44.4762V8.76867H41.9917V5.04199Z" fill="white"/>
<path d="M37.0229 5.04199H39.5069V8.76867H37.0229V5.04199Z" fill="white"/>
<path d="M50.687 59.6992H73.0466V72.121H50.687V59.6992Z" fill="#D0DD28"/>
<path d="M47.0411 22.5139C44.9341 20.4145 41.5245 20.4207 39.4251 22.5276C37.3952 24.5647 37.3248 27.8379 39.2649 29.961L49.4447 41.0664C46.385 46.4214 46.5158 53.0247 49.7837 58.2546L50.6869 59.6994H66.8354V42.3087L47.0411 22.5139Z" fill="#FDD7AD"/>
<path d="M54.4141 63.4258H56.8985V65.9103H54.4141V63.4258Z" fill="#6B962A"/>
<path d="M5.96777 12.9921V7.02965C5.96777 5.93147 6.85725 5.04199 7.95543 5.04199H13.9179C15.0161 5.04199 15.9051 5.93147 15.9051 7.02965V12.9921C15.9051 14.0903 15.0161 14.9798 13.9179 14.9798H7.95543C6.85725 14.9798 5.96777 14.0903 5.96777 12.9921Z" fill="#D0DD28"/>
<path d="M5.96777 8.76904H9.69445V11.2535H5.96777V8.76904Z" fill="#6B962A"/>
<path d="M12.1792 8.76904H15.9054V11.2535H12.1792V8.76904Z" fill="#6B962A"/>
</svg>
