<svg width="164" height="67" viewBox="0 0 164 67" fill="none" xmlns="http://www.w3.org/2000/svg">
<path d="M70.0859 17.3677V12.5625H75.0355V17.3677H70.0859ZM70.2128 48.4747V23.8167H74.9086V48.4747H70.2128Z" fill="#282829"/>
<path d="M84.4257 15.2178H96.99C99.5282 15.2178 101.432 15.5971 102.701 16.4823C103.97 17.3674 104.858 18.5055 105.239 20.0229C105.62 21.5403 105.874 23.4371 105.874 25.8397C105.874 28.1158 105.62 30.0126 105.239 31.53C104.858 33.0474 103.97 34.1855 102.701 35.0706C101.432 35.9558 99.4013 36.4616 96.8631 36.4616H89.2484V48.348H84.2988V15.2178H84.4257ZM95.3401 32.4152C96.99 32.4152 98.2591 32.1623 99.1475 31.7829C99.909 31.4035 100.417 30.7713 100.67 29.8861C100.924 29.001 101.051 27.7365 101.051 25.9661C101.051 24.1958 100.924 22.9313 100.67 22.0461C100.544 21.161 100.036 20.5287 99.1475 20.1494C98.2591 19.77 97.1169 19.5171 95.3401 19.5171H89.3753V32.4152H95.3401Z" fill="#282829"/>
<path d="M113.49 48.0956V43.9227C116.917 44.302 119.836 44.4285 122.247 44.4285C123.77 44.4285 124.912 44.302 125.8 44.1756C126.689 44.0491 127.323 43.7962 127.831 43.4169C128.339 43.0375 128.592 42.5317 128.719 41.8995C128.846 41.2672 128.973 40.382 128.973 39.1175C128.973 37.7266 128.846 36.5885 128.719 36.0827C128.592 35.4504 128.212 35.0711 127.831 34.8182C127.323 34.5653 126.562 34.3124 125.42 34.1859L118.947 33.3008C117.297 33.0479 115.901 32.5421 115.013 31.9098C114.125 31.1511 113.49 30.2659 113.236 29.0014C112.982 27.8634 112.729 26.2195 112.729 24.4492C112.729 21.9201 113.109 19.8969 113.998 18.506C114.759 17.115 116.028 16.2298 117.551 15.5976C119.074 14.9653 121.105 14.8389 123.516 14.8389C125.166 14.8389 126.816 14.9653 128.466 15.0918C130.115 15.2182 131.511 15.4711 132.654 15.724V19.7705C130.369 19.3911 127.704 19.1382 124.658 19.1382C123.135 19.1382 121.866 19.2647 120.978 19.3911C120.089 19.5176 119.455 19.7705 118.947 20.1498C118.44 20.5292 118.186 21.035 118.059 21.6672C117.932 22.2995 117.805 23.0582 117.805 24.1963C117.805 25.4608 117.932 26.3459 118.059 26.9782C118.186 27.6105 118.44 27.9898 118.947 28.2427C119.328 28.4956 120.089 28.6221 121.105 28.7485L127.704 29.6337C129.227 29.8866 130.369 30.1395 131.258 30.6453C132.146 31.1511 132.907 31.9098 133.288 33.0479C133.796 34.3124 134.05 36.2091 134.05 38.7382C134.05 41.5201 133.669 43.6698 132.907 45.0607C132.146 46.5782 131.004 47.4633 129.608 48.0956C128.212 48.6014 126.308 48.8543 123.897 48.8543C120.216 48.8543 116.79 48.6014 113.49 48.0956Z" fill="#282829"/>
<path d="M142.551 15.2178H155.115C157.653 15.2178 159.557 15.5971 160.826 16.4823C162.095 17.3674 162.983 18.5055 163.364 20.0229C163.745 21.5403 163.999 23.4371 163.999 25.8397C163.999 28.1158 163.745 30.0126 163.364 31.53C162.983 33.0474 162.095 34.1855 160.826 35.0706C159.557 35.9558 157.526 36.4616 154.988 36.4616H147.373V48.348H142.424V15.2178H142.551ZM153.465 32.4152C155.115 32.4152 156.384 32.1623 157.272 31.7829C158.034 31.4035 158.542 30.7713 158.795 29.8861C159.049 29.001 159.176 27.7365 159.176 25.9661C159.176 24.1958 159.049 22.9313 158.795 22.0461C158.542 21.161 158.034 20.5287 157.272 20.1494C156.511 19.77 155.242 19.5171 153.465 19.5171H147.5V32.4152H153.465Z" fill="#282829"/>
<path d="M26.7382 67L0 51.3377V11.3117L11.4139 0H53.265V51.5552L26.7382 67ZM4.7558 48.5097L26.7382 61.3442L48.5092 48.6185V4.89448H13.1049L4.7558 13.5958V48.5097Z" fill="#008795"/>
<path d="M27.602 50.0329L46.2555 31.3251L27.2785 12.291L23.8281 15.7715L39.4626 31.3251L24.2594 46.5524L27.602 50.0329Z" fill="#D0DD28"/>
<path d="M20.2696 42.8539L23.6122 39.3733L14.9863 30.9983L23.5043 22.7321L20.054 19.3604L8.19336 30.9983L20.2696 42.8539Z" fill="#D0DD28"/>
<path d="M27.4109 26.1311L22.3789 31.207L27.4109 36.283L32.4429 31.207L27.4109 26.1311Z" fill="#D0DD28"/>
</svg>
