<svg width="38" height="38" viewBox="0 0 38 38" fill="none" xmlns="http://www.w3.org/2000/svg">
<path fill-rule="evenodd" clip-rule="evenodd" d="M19 38C29.4934 38 38 29.4934 38 19C38 8.50659 29.4934 0 19 0C8.50659 0 0 8.50659 0 19C0 29.4934 8.50659 38 19 38Z" fill="#0088CC"/>
<path fill-rule="evenodd" clip-rule="evenodd" d="M25.0976 14.4569L23.2382 23.1522C23.1653 23.4621 23.0423 23.658 22.8691 23.7401C22.6959 23.8221 22.4817 23.7902 22.2265 23.6444L19.4101 21.5662L18.043 22.8787C17.9518 22.9699 17.8789 23.0337 17.8242 23.0701C17.7331 23.1248 17.6146 23.1522 17.4688 23.1522L17.6875 20.2811L22.9101 15.5506C22.983 15.4959 23.0058 15.4458 22.9785 15.4002C22.9511 15.3547 22.8964 15.3364 22.8144 15.3456C22.7324 15.3547 22.6458 15.3866 22.5546 15.4413L16.1016 19.5155L13.3125 18.6405C13.0027 18.5493 12.8568 18.4126 12.8751 18.2303C12.8933 18.048 13.0847 17.884 13.4493 17.7381L24.3046 13.5545C24.578 13.4634 24.7968 13.4953 24.9609 13.6502C25.1249 13.8052 25.1705 14.0741 25.0976 14.4569Z" fill="white"/>
</svg>
