<svg width="38" height="38" viewBox="0 0 38 38" fill="none" xmlns="http://www.w3.org/2000/svg">
<path fill-rule="evenodd" clip-rule="evenodd" d="M19 38C29.4934 38 38 29.4934 38 19C38 8.50659 29.4934 0 19 0C8.50659 0 0 8.50659 0 19C0 29.4934 8.50659 38 19 38Z" fill="#1DA1F2"/>
<path fill-rule="evenodd" clip-rule="evenodd" d="M24.5508 15.9062C24.569 15.9792 24.5781 16.0976 24.5781 16.2617C24.5781 17.5742 24.2591 18.8411 23.6211 20.0625C22.9648 21.3568 22.0442 22.3867 20.8594 23.1523C19.5651 24.0091 18.0794 24.4375 16.4023 24.4375C14.7982 24.4375 13.3307 24.0091 12 23.1523C12.2005 23.1705 12.4284 23.1797 12.6836 23.1797C14.0143 23.1797 15.2083 22.7695 16.2656 21.9492C15.6276 21.9492 15.067 21.7623 14.584 21.3887C14.1009 21.015 13.7682 20.5456 13.5859 19.9805C13.7682 19.9987 13.9414 20.0078 14.1055 20.0078C14.3607 20.0078 14.6159 19.9805 14.8711 19.9258C14.2148 19.7799 13.668 19.4427 13.2305 18.914C12.793 18.3854 12.5742 17.7838 12.5742 17.1094V17.0547C12.9753 17.2917 13.4036 17.4193 13.8594 17.4375C13.4766 17.1641 13.1667 16.8177 12.9297 16.3984C12.6927 15.9792 12.5742 15.5189 12.5742 15.0176C12.5742 14.5163 12.7109 14.0378 12.9844 13.582C13.6953 14.4753 14.5657 15.1862 15.5957 15.7148C16.6256 16.2435 17.7239 16.5351 18.8906 16.5898C18.8542 16.3711 18.8359 16.1523 18.8359 15.9336C18.8359 15.4232 18.9635 14.9447 19.2187 14.498C19.4739 14.0514 19.8203 13.7005 20.2578 13.4453C20.6953 13.1901 21.1692 13.0625 21.6797 13.0625C22.0989 13.0625 22.4863 13.1445 22.8418 13.3086C23.1972 13.4727 23.5117 13.6914 23.7851 13.9648C24.4414 13.8372 25.0521 13.6094 25.6172 13.2812C25.3984 13.9557 24.9791 14.4844 24.3593 14.8672C24.9062 14.7943 25.4531 14.6393 26 14.4023C25.5989 14.9857 25.1159 15.487 24.5508 15.9062Z" fill="white"/>
</svg>
